<?xml version="1.0" standalone="no"?>
<!DOCTYPE svg PUBLIC "-//W3C//DTD SVG 1.1//EN" "http://www.w3.org/Graphics/SVG/1.1/DTD/svg11.dtd" >
<svg xmlns="http://www.w3.org/2000/svg" xmlns:xlink="http://www.w3.org/1999/xlink" version="1.1">
<metadata>
Created by FontForge 20150102 at Sun Mar 15 06:35:08 2015
 By uniteet7
Copyright (c) 1985, 1987, 1990 Adobe Systems Incorporated.  All Rights Reserved.Glypha is a registered trademark of Linotype AG and/or its subsidiaries.
</metadata>
<defs>
<font id="glypha65bold1361525410" horiz-adv-x="556" >
  <font-face 
    font-family="glypha65bold1361525410"
    font-weight="700"
    font-stretch="normal"
    units-per-em="1000"
    panose-1="2 2 8 0 0 0 0 0 0 0"
    ascent="800"
    descent="-200"
    x-height="532"
    cap-height="716"
    bbox="-50 -212 1000 976"
    underline-thickness="54"
    underline-position="-44"
    unicode-range="U+0020-2122"
  />
<missing-glyph horiz-adv-x="502" 
d="M-1 0h500v500h-500v-500zM9 10v480h480v-480h-480z" />
    <glyph glyph-name=".notdef" horiz-adv-x="502" 
d="M-1 0h500v500h-500v-500zM9 10v480h480v-480h-480z" />
    <glyph glyph-name=".null" horiz-adv-x="0" 
 />
    <glyph glyph-name="nonmarkingreturn" horiz-adv-x="333" 
 />
    <glyph glyph-name="space" unicode=" " horiz-adv-x="278" 
 />
    <glyph glyph-name="exclam" unicode="!" horiz-adv-x="333" 
d="M117 198h102l27 518h-156zM100 0h136v132h-136v-132z" />
    <glyph glyph-name="quotedbl" unicode="&#x22;" horiz-adv-x="400" 
d="M329 429l27 287h-126l26 -287h73zM135 429l27 287h-126l26 -287h73z" />
    <glyph glyph-name="numbersign" unicode="#" 
d="M392 240h121v75h-109l14 102h124v75h-113l32 224h-76l-32 -224h-103l31 224h-75l-32 -224h-130v-75h119l-15 -102h-133v-75h121l-34 -240h76l34 240h103l-34 -240h76zM341 417l-15 -102h-102l14 102h103z" />
    <glyph glyph-name="dollar" unicode="$" 
d="M513 481v235h-111v-59q-22 29 -42.5 43t-44.5 20v97h-75v-87q-97 0 -154.5 -56.5t-57.5 -152.5q0 -41 12 -71.5t34.5 -52t51 -37.5t68.5 -31l46 -18v-227q-49 12 -72 57.5t-23 107.5h-117v-249h111v69q13 -30 39.5 -48t61.5 -26v-92h75v86q98 1 156 57t58 155
q0 36 -11 71.5t-32 58.5q-21 25 -53 42t-76 32l-42 16v212q77 -21 83 -152h115zM240 450q-36 15 -56.5 37t-20.5 58q0 20 9 39.5t22 29.5q24 18 46 22v-186zM315 282q37 -15 55.5 -37t18.5 -63q0 -38 -20 -63t-54 -34v197z" />
    <glyph glyph-name="percent" unicode="%" horiz-adv-x="833" 
d="M602 -12q16 0 39.5 6.5t34.5 15.5q35 25 49.5 68.5t14.5 93.5q0 38 -8 70.5t-25.5 57.5t-45.5 39t-67 14q-63 0 -104 -52q-18 -22 -25.5 -57.5t-7.5 -71.5q0 -37 7.5 -70t24.5 -58.5t45.5 -40.5t67.5 -15zM598 289q20 0 32 -12t17.5 -31t6.5 -37t1 -41q0 -20 -1.5 -38
t-6.5 -36t-16.5 -30t-30.5 -12t-31 12t-17.5 30.5t-7.5 37.5t-2 39q0 19 1.5 38t7 37.5t17 30.5t30.5 12zM259 -12l396 740h-84l-395 -740h83zM235 361q38 0 65 16t44 43t24.5 60t7.5 68q0 38 -8 70.5t-25 55.5q-37 54 -114 54q-67 0 -106 -57q-16 -25 -23 -59.5t-7 -72.5
q0 -34 8.5 -66t25.5 -57.5t44.5 -40t63.5 -14.5zM234 664q18 0 30 -12t17.5 -30t7.5 -37t2 -38t-1.5 -38.5t-7 -38.5t-17.5 -32t-31 -13q-18 0 -29.5 13t-17 32t-7.5 39t-2 38q0 19 2 37.5t7.5 37t17 30.5t29.5 12z" />
    <glyph glyph-name="ampersand" unicode="&#x26;" horiz-adv-x="778" 
d="M289 468q-29 29 -48 59t-19 60q0 33 22 52t55 19q36 0 55.5 -22.5t19.5 -58.5q0 -30 -22 -56.5t-55 -47.5zM361 386q58 38 86 76q23 30 31.5 54.5t8.5 62.5q0 80 -53 119.5t-135 39.5q-81 0 -135 -40q-29 -21 -45 -52t-16 -71q0 -44 19 -83.5t53 -70.5q8 -8 13 -11
q-67 -36 -104.5 -85.5t-37.5 -119.5q0 -38 13 -78.5t36 -65.5q10 -11 16.5 -17t16.5 -14q32 -24 71 -33t86 -9q117 0 200 62q1 2 5 4q3 2 4 3l54 -57h185v90h-102l-52 61q29 42 45 92.5t20 104.5h78v83h-242v-83h61q-3 -68 -36 -119zM427 131q-19 -23 -54.5 -40t-65.5 -17
q-12 0 -27.5 2.5t-24.5 5.5q-73 32 -73 108q0 46 21 78t62 57z" />
    <glyph glyph-name="quotesingle" unicode="'" horiz-adv-x="200" 
d="M135 429l27 287h-126l26 -287h73z" />
    <glyph glyph-name="parenleft" unicode="(" horiz-adv-x="333" 
d="M191 746q-65 -116 -102.5 -221.5t-37.5 -212.5q0 -116 37.5 -231t102.5 -227h101q-59 103 -92 214t-33 223q0 121 31.5 238.5t93.5 216.5h-101z" />
    <glyph glyph-name="parenright" unicode=")" horiz-adv-x="333" 
d="M27 746q58 -93 91.5 -210.5t33.5 -226.5q0 -119 -32 -238t-93 -217h100q6 10 10 14q68 121 102 224t34 220q0 106 -40 217t-106 217h-100z" />
    <glyph glyph-name="asterisk" unicode="*" horiz-adv-x="444" 
d="M174 521l-90 -97l83 -63l56 119l54 -119l82 63l-87 97l123 19l-32 103l-111 -62l20 135h-98l19 -133l-109 64l-32 -107z" />
    <glyph glyph-name="plus" unicode="+" horiz-adv-x="660" 
d="M76 404v-92h208v-208h92v208h208v92h-208v208h-92v-208h-208z" />
    <glyph glyph-name="comma" unicode="," horiz-adv-x="278" 
d="M71 132v-132h52l-54 -134h91l47 134v132h-136z" />
    <glyph glyph-name="hyphen" unicode="-" horiz-adv-x="370" 
d="M63 234h244v99h-244v-99z" />
    <glyph glyph-name="period" unicode="." horiz-adv-x="278" 
d="M207 0v132h-136v-132h136z" />
    <glyph glyph-name="slash" unicode="/" horiz-adv-x="389" 
d="M105 0l264 716h-92l-263 -716h91z" />
    <glyph glyph-name="zero" unicode="0" 
d="M277 639q51 0 73 -45q10 -21 16.5 -51.5t10.5 -62.5q7 -53 7 -115q0 -26 -2 -78q-1 -23 -5 -69q-3 -24 -8.5 -47t-16 -44t-28.5 -33.5t-44 -12.5q-24 0 -42 11t-29 29t-17.5 39t-10.5 45q-6 35 -8 65t-2 69q0 104 14 179q4 22 10 42.5t16.5 38.5t27 29t38.5 11zM275 -12
q30 0 63.5 10t59.5 26q56 37 86 112q13 32 20.5 68t10.5 73q5 43 5 77q0 77 -8.5 135.5t-33.5 111.5q-12 27 -32.5 52t-44.5 41q-29 20 -56.5 27t-64.5 7q-71 0 -119.5 -31.5t-75.5 -83.5t-38 -114t-11 -129q0 -71 8 -131.5t31 -110.5q30 -67 79.5 -103.5t120.5 -36.5z" />
    <glyph glyph-name="one" unicode="1" 
d="M86 466q62 42 92 64q8 6 13 10q21 16 32 24.5t17 14.5l5 5v-494h-98v-90h328v90h-93v626h-130q-71 -64 -166 -128v-122z" />
    <glyph glyph-name="two" unicode="2" 
d="M171 505q0 54 25 93t75 39q41 0 65 -29.5t24 -71.5q0 -36 -16.5 -66t-48.5 -71l-1 -1q-31 -40 -105 -116l-11 -11q-71 -71 -143 -140v-131h474v195h-113v-105h-230q26 21 49 43q98 89 184 190q51 62 76 107.5t25 103.5q0 40 -17.5 81.5t-47.5 65.5q-32 25 -74.5 36
t-89.5 11q-108 0 -169.5 -57.5t-66.5 -165.5h136z" />
    <glyph glyph-name="three" unicode="3" 
d="M36 202q0 -105 65.5 -159.5t172.5 -54.5q21 0 49 4t48 10q32 9 56.5 24.5t45.5 40.5q23 28 31.5 57.5t8.5 70.5q0 15 -4.5 36.5t-10.5 38.5q-19 47 -52.5 68t-87.5 28h2q44 11 62 22q48 29 64 62t16 91q0 33 -13 69q-16 41 -51 70.5t-78 39.5q-36 8 -79 8t-81.5 -8.5
t-69.5 -27.5t-52 -50t-29 -74q-4 -16 -6 -51v-1h136q0 51 23 86.5t72 35.5q44 0 68.5 -31t24.5 -76q0 -62 -35 -91t-103 -29v-90h26q36 0 54.5 -4t31.5 -18q16 -18 24.5 -45t8.5 -54q0 -43 -20 -74q-11 -18 -32 -30t-42 -12q-53 0 -78.5 31.5t-27.5 86.5h-138z" />
    <glyph glyph-name="four" unicode="4" 
d="M317 594v-324h-197zM317 183v-98h-95v-85h299v85h-71v98h79v87h-79v446h-165l-263 -409v-124h295z" />
    <glyph glyph-name="five" unicode="5" 
d="M51 191q0 -97 64 -150t163 -53q116 0 180 67.5t64 183.5q0 46 -13 87t-38 72q-56 68 -150 68q-41 0 -77.5 -17t-55.5 -51l5 222h297v96h-422l-9 -428h129q6 38 32 61.5t64 23.5q31 0 51 -13.5t31.5 -36t15.5 -48.5t4 -55q0 -59 -24.5 -98.5t-80.5 -39.5q-45 0 -68.5 31.5
t-24.5 77.5h-137z" />
    <glyph glyph-name="six" unicode="6" 
d="M515 541q-3 86 -58.5 136.5t-141.5 50.5q-79 0 -133 -32.5t-85.5 -88t-44.5 -122.5t-13 -142q0 -71 10.5 -133t37.5 -112t76.5 -80t124.5 -30q53 0 95.5 15.5t77.5 50.5q34 35 47.5 78t13.5 98q0 104 -53 169t-155 65q-49 0 -86 -28.5t-59 -75.5q0 45 4.5 90.5t18.5 89.5
t41 72.5t70 28.5q36 0 58 -31t22 -69h132zM288 372q28 0 48 -12.5t32 -34t17.5 -46.5t5.5 -52q0 -30 -3.5 -52t-13.5 -44q-11 -24 -34 -41t-48 -17q-30 0 -52 13t-36 35t-20 48.5t-6 55.5q0 26 6.5 51.5t20.5 47.5t35 35t48 13z" />
    <glyph glyph-name="seven" unicode="7" 
d="M155 498v122h237q-9 -19 -20 -44t-20 -44q-48 -102 -87 -193q-25 -56 -67 -170q-8 -23 -14 -39l-10 -28q-24 -65 -39 -102h147q9 23 25 69l16 46l13 36q36 104 58 158q37 93 86 201q24 52 44 100v106h-486v-218h117z" />
    <glyph glyph-name="eight" unicode="8" 
d="M374 373q59 11 96 55t37 104q0 99 -63 147.5t-166 48.5q-48 0 -89 -11.5t-72.5 -35t-49 -60.5t-17.5 -86q0 -66 36 -106t103 -56q-67 -10 -107.5 -59.5t-40.5 -117.5q0 -107 65 -157.5t175 -50.5q105 0 169.5 50.5t64.5 152.5q0 71 -36.5 122t-104.5 60zM279 644
q47 0 73 -30.5t26 -77.5q0 -53 -24.5 -86.5t-76.5 -33.5q-49 0 -74 33t-25 84q0 49 26.5 80t74.5 31zM279 332q51 0 78.5 -35.5t27.5 -87.5q0 -29 -4 -50t-17 -40q-29 -45 -84 -45q-52 0 -80.5 36t-28.5 89q0 57 26.5 95t81.5 38z" />
    <glyph glyph-name="nine" unicode="9" 
d="M42 173q4 -86 58.5 -135.5t141.5 -49.5q74 0 128 28t89 90q32 55 45 122.5t13 143.5q0 72 -9 126q-5 34 -15 66t-25 56q-19 30 -33 44t-46 34q-49 30 -120 30q-49 0 -92 -15t-76 -47q-37 -36 -51.5 -80.5t-14.5 -100.5q0 -46 11.5 -87.5t35.5 -75.5q25 -34 67 -53t86 -19
q54 0 93.5 27.5t59.5 78.5v-6q0 -25 -4 -75q-2 -30 -9.5 -64t-22 -65.5t-38 -52t-55.5 -20.5q-42 0 -62.5 28t-22.5 72h-132zM269 342q-29 0 -49 13t-32 34t-17 46.5t-5 52.5q0 30 3.5 53t14.5 47t36 39t52 15q26 0 45 -12t35 -34q15 -21 20.5 -47t5.5 -59q0 -26 -6 -52
t-19.5 -48t-34.5 -35t-49 -13z" />
    <glyph glyph-name="colon" unicode=":" horiz-adv-x="333" 
d="M234 132h-136v-132h136v132zM98 372h136v132h-136v-132z" />
    <glyph glyph-name="semicolon" unicode=";" horiz-adv-x="333" 
d="M99 0h53l-54 -134h91l46 134v132h-136v-132zM99 372h136v132h-136v-132z" />
    <glyph glyph-name="less" unicode="&#x3c;" horiz-adv-x="660" 
d="M595 158l-450 199l450 202v92l-540 -249v-88l540 -247v91z" />
    <glyph glyph-name="equal" unicode="=" horiz-adv-x="660" 
d="M76 482v-93h508v93h-508zM76 326v-93h508v93h-508z" />
    <glyph glyph-name="greater" unicode="&#x3e;" horiz-adv-x="660" 
d="M55 158v-91l540 247v88l-540 249v-92l450 -202z" />
    <glyph glyph-name="question" unicode="?" horiz-adv-x="500" 
d="M160 537v1q2 30 7 44q17 57 80 57q40 0 58.5 -27.5t18.5 -68.5q0 -39 -18.5 -67.5t-55.5 -65.5q-31 -32 -48.5 -54.5t-27.5 -45.5t-13.5 -51.5t-3.5 -73.5h136q0 34 2.5 53.5t9 33.5t18 27.5t36.5 37.5l8 7q25 24 37.5 38.5t26.5 39.5q17 31 24 58t7 61q0 92 -60 140
t-155 48q-39 0 -69.5 -6t-58.5 -23q-30 -18 -51.5 -46t-31.5 -62q-9 -27 -9 -55h133zM293 132h-136v-132h136v132z" />
    <glyph glyph-name="at" unicode="@" horiz-adv-x="880" 
d="M732 150q-55 -54 -118.5 -79.5t-141.5 -25.5q-67 0 -126 22t-103.5 64t-69.5 99t-25 125q0 65 24.5 122t70.5 102q47 47 101.5 68.5t121.5 21.5q57 0 107 -17t87 -49.5t58 -79.5t21 -105q0 -42 -11.5 -79t-35.5 -67q-16 -21 -42.5 -38t-48.5 -17q-30 0 -30 30q0 9 2.5 20
t6.5 23l73 238h-71l-11 -31q-12 28 -38.5 45t-58.5 17q-43 0 -82 -20.5t-69 -55.5t-47 -77t-17 -83q0 -66 37.5 -112.5t100.5 -46.5q68 0 114 59q9 -63 70 -63q45 0 89.5 27t72.5 66q27 37 39.5 81t12.5 93q0 66 -26 122t-71.5 96t-105 61.5t-124.5 21.5q-76 0 -145.5 -29.5
t-123.5 -81.5t-84 -121t-30 -145q0 -75 32 -147t87 -120q53 -46 125.5 -71t145.5 -25q85 0 153.5 28.5t123.5 89.5zM410 233q-35 0 -54 25t-19 62q0 28 10 58t28.5 56t44 42t54.5 16q31 0 47.5 -19t16.5 -49q0 -20 -5.5 -45t-13.5 -48q-16 -43 -42.5 -70.5t-66.5 -27.5z" />
    <glyph glyph-name="A" unicode="A" horiz-adv-x="778" 
d="M281 309l98 291h1l98 -291h-197zM288 0v90h-87l46 129h266l45 -129h-86v-90h290v90h-57l-233 626h-164l-235 -626h-57v-90h272z" />
    <glyph glyph-name="B" unicode="B" horiz-adv-x="667" 
d="M23 716v-90h82v-535h-82v-91h317q63 0 106 4.5t73 20.5q46 25 72 68.5t26 96.5q0 72 -42 125t-113 55q68 11 104 53t36 111q0 40 -15.5 79t-44.5 62q-32 25 -69.5 33t-89.5 8h-360zM299 626q53 0 76.5 -1.5t37.5 -7.5q28 -13 40 -38t12 -58q0 -25 -10 -49t-27 -39
q-17 -14 -43 -18t-63 -4h-80v215h57zM242 90v231h91q40 0 61.5 -3t39.5 -15q23 -15 34.5 -39.5t11.5 -54.5t-9 -52t-30 -41q-20 -17 -45 -21.5t-62 -4.5h-92z" />
    <glyph glyph-name="C" unicode="C" horiz-adv-x="722" 
d="M670 458v258h-112v-67q-32 43 -85.5 61t-117.5 18q-74 0 -118 -18.5t-91 -60.5q-41 -36 -70.5 -109t-29.5 -173q0 -83 20 -152t61 -120t105 -79t149 -28q60 0 113.5 15.5t94.5 46t64.5 78.5t24.5 110h-140q0 -71 -45 -114.5t-116 -43.5q-54 0 -90 25.5t-56.5 66.5
t-28.5 89t-8 99t9 99t30.5 88t59 64.5t91.5 24.5q80 0 120 -48t45 -130h121z" />
    <glyph glyph-name="D" unicode="D" horiz-adv-x="741" 
d="M316 626q52 0 89.5 -9t67.5 -38q30 -30 48 -69t25 -85q5 -37 5 -63q0 -25 -3 -49q-1 -7 -3 -20q-3 -25 -6 -38q0 -1 -1 -4q-3 -14 -6.5 -24t-9.5 -23q-20 -41 -44.5 -64.5t-53 -34t-60 -13t-85.5 -2.5h-33v536h70zM314 0q91 0 157.5 16t121.5 64q55 49 77.5 122t22.5 161
q0 39 -6 76q-7 44 -19 78t-34 67q-52 77 -120.5 104.5t-171.5 27.5h-317v-90h84v-536h-84v-90h289z" />
    <glyph glyph-name="E" unicode="E" horiz-adv-x="667" 
d="M616 0v228h-110v-138h-262v228h105v-90h95v273h-95v-93h-105v218h262v-129h110v219h-592v-90h83v-536h-83v-90h592z" />
    <glyph glyph-name="F" unicode="F" horiz-adv-x="630" 
d="M349 0v90h-102v214h94v-97h94v279h-94v-92h-94v232h242v-140h109v230h-571v-90h83v-536h-83v-90h322z" />
    <glyph glyph-name="G" unicode="G" horiz-adv-x="778" 
d="M676 462v254h-116v-78q-38 50 -89 70t-120 20q-68 0 -125 -28t-86 -62q-4 -6 -13 -18q-16 -21 -27 -39t-21 -42q-34 -84 -34 -190q0 -68 25.5 -144.5t69.5 -122.5q48 -49 100 -71.5t123 -22.5q62 0 117.5 23.5t85.5 70.5v-82h118v269h72v90h-288v-90h92q0 -81 -46 -132
t-126 -51q-46 0 -86 25t-64 65q-23 39 -32 85t-9 101q0 48 9 93t29 81q23 40 63 66.5t85 26.5q77 0 122.5 -45t48.5 -122h122z" />
    <glyph glyph-name="H" unicode="H" horiz-adv-x="778" 
d="M330 0v90h-87v228h290v-228h-87v-90h307v90h-83v536h83v90h-307v-90h87v-218h-290v218h87v90h-306v-90h82v-536h-82v-90h306z" />
    <glyph glyph-name="I" unicode="I" horiz-adv-x="352" 
d="M107 626v-536h-87v-90h312v90h-88v536h88v90h-312v-90h87z" />
    <glyph glyph-name="J" unicode="J" horiz-adv-x="519" 
d="M23 231v-23q1 -45 6 -68q17 -74 69 -113t129 -39q48 0 90.5 13.5t70.5 43.5q19 20 29.5 39t14.5 44q5 37 5 112v386h66v90h-299v-90h96v-401q0 -72 -12 -108.5t-52 -36.5q-26 0 -42 11.5t-23 30.5t-8.5 38t-2.5 50v21h-137z" />
    <glyph glyph-name="K" unicode="K" horiz-adv-x="685" 
d="M322 0v90h-81v282l219 -282h-71v-90h287v90h-56l-231 297l217 239h54v90h-276v-90h67l-210 -239v239h81v90h-300v-90h82v-536h-82v-90h300z" />
    <glyph glyph-name="L" unicode="L" horiz-adv-x="611" 
d="M579 0v253h-120v-163h-214v536h108v90h-329v-90h84v-536h-84v-90h555z" />
    <glyph glyph-name="M" unicode="M" horiz-adv-x="944" 
d="M920 90h-81v536h81v90h-301l-150 -555h-1l-149 555h-295v-90h81v-536h-81v-90h268v90h-71v535h1l177 -625h126l183 625h1v-535h-76v-90h287v90z" />
    <glyph glyph-name="N" unicode="N" horiz-adv-x="778" 
d="M308 0v90h-79v488h1l272 -578h177v626h78v90h-282v-90h84v-473h-1l-266 563h-266v-90h83v-536h-83v-90h282z" />
    <glyph glyph-name="O" unicode="O" horiz-adv-x="778" 
d="M389 639q102 0 158 -90q18 -29 27.5 -84t9.5 -101q0 -36 -2 -65t-8 -52q-10 -38 -21.5 -64t-32.5 -49q-52 -57 -132 -57q-56 0 -94.5 25.5t-60.5 68t-31 91.5t-9 101q0 53 7 98t27 80q25 46 67 72t95 26zM386 728q-74 0 -141.5 -27.5t-114.5 -80.5q-47 -55 -66 -124
t-19 -152q0 -68 22 -137.5t64 -114.5q52 -56 114 -80t144 -24q77 0 141 24.5t113 76.5q40 44 68 119q12 32 16.5 70t4.5 84q0 79 -22.5 146t-67 116.5t-109.5 76.5t-147 27z" />
    <glyph glyph-name="P" unicode="P" horiz-adv-x="630" 
d="M354 0v90h-105v186h94q63 0 105 7t74 34q40 35 57.5 79.5t17.5 100.5q0 46 -15 88t-45 73q-34 35 -74 46.5t-97 11.5h-338v-89h84v-537h-84v-90h326zM318 626q38 0 59 -4.5t43 -24.5q19 -16 27.5 -43t8.5 -57t-7.5 -56t-24.5 -45q-18 -20 -43 -25t-63 -5h-69v260h69z" />
    <glyph glyph-name="Q" unicode="Q" horiz-adv-x="796" 
d="M704 88q-15 0 -43 -2l-21 -1q-12 -1 -37 -4q-16 -3 -27 -4q36 21 62.5 53t42.5 72t23.5 82.5t7.5 84.5q0 53 -13 106.5t-38 99.5q-50 90 -153 132q-31 11 -63 16t-70 5q-70 0 -135 -26.5t-109 -77.5q-47 -58 -66.5 -124t-19.5 -148q0 -74 17 -135.5t58 -115.5
q18 -22 49.5 -46.5t58.5 -37.5q31 -16 65.5 -22.5t73.5 -6.5q37 0 104 3q70 4 102 4h179v93h-48zM380 639q51 0 86 -23.5t62 -69.5q22 -38 30.5 -89.5t8.5 -108.5q0 -46 -11 -93.5t-33.5 -87.5t-59 -65t-86.5 -25q-54 0 -90.5 24.5t-58 65t-30 88.5t-8.5 98q0 51 8 97t26 87
q22 47 63.5 74.5t92.5 27.5z" />
    <glyph glyph-name="R" unicode="R" horiz-adv-x="685" 
d="M335 626q31 0 52 -3t37 -15q19 -15 30 -40t11 -50q0 -29 -8.5 -53t-28.5 -42q-21 -19 -48.5 -25t-64.5 -6h-70v234h90zM328 0v90h-83v212h68q33 0 49.5 -3.5t27.5 -14.5q21 -22 36.5 -71.5t34.5 -127.5q16 -63 23 -85h179v90h-60l-39 138q-9 32 -16.5 50.5t-19.5 31.5
t-31.5 21t-50.5 12q73 8 115.5 56.5t42.5 121.5q0 46 -17 87.5t-51 66.5q-35 26 -73.5 33.5t-94.5 7.5h-346v-89h86v-537h-86v-90h306z" />
    <glyph glyph-name="S" unicode="S" horiz-adv-x="574" 
d="M528 480v236h-112v-60q-25 40 -68.5 56t-97.5 16q-59 0 -101.5 -19.5t-66.5 -52.5q-17 -23 -30.5 -58t-13.5 -78q0 -74 47 -123q25 -25 52 -39t69 -29l92 -35q54 -20 80 -42t26 -69q0 -50 -33 -76.5t-84 -26.5q-35 0 -60.5 13.5t-41 37.5t-22.5 54t-7 64h-118v-249h112
v67q25 -43 68 -61t100 -18q53 0 103.5 17.5t80.5 61.5q21 25 32 56t11 72q0 34 -7 59q-10 36 -22.5 58t-38.5 40q-23 17 -47.5 28.5t-58.5 23.5l-87 33q-23 8 -40.5 15.5t-32.5 19t-24.5 27.5t-9.5 37q0 44 24 74q14 17 35.5 23.5t48.5 6.5q60 0 91.5 -37t34.5 -100
q1 -8 1 -23h116z" />
    <glyph glyph-name="T" unicode="T" horiz-adv-x="667" 
d="M153 472v150h112v-532h-97v-90h330v90h-96v532h112v-150h116v244h-593v-244h116z" />
    <glyph glyph-name="U" unicode="U" horiz-adv-x="722" 
d="M15 626h72v-336q0 -61 5 -98.5t23 -70.5q37 -68 95 -99q27 -15 69 -24.5t77 -9.5q37 0 82.5 9t71.5 25q72 41 106 119q12 28 15.5 63.5t3.5 103.5v318h72v90h-285v-90h88v-330q0 -45 -1.5 -67t-5.5 -38q-10 -31 -26.5 -57t-42.5 -36q-18 -8 -32.5 -11.5t-32.5 -3.5
q-38 0 -69 15t-50 45q-17 28 -21.5 59t-4.5 84v340h89v90h-298v-90z" />
    <glyph glyph-name="V" unicode="V" horiz-adv-x="741" 
d="M17 626h52l225 -626h153l227 626h53v90h-273v-90h87l-164 -480h-1l-162 480h92v90h-289v-90z" />
    <glyph glyph-name="W" unicode="W" horiz-adv-x="1000" 
d="M28 626h48l142 -626h167l134 569h1v0l118 -569h166l149 626h44v90h-254v-90h89l-112 -480h-1l-116 570h-162l-128 -570h-1l-100 480h87v90h-271v-90z" />
    <glyph glyph-name="X" unicode="X" horiz-adv-x="741" 
d="M286 0v90h-89l158 211l164 -211h-87v-90h296v90h-51l-223 277l209 259h52v90h-267v-90h81l-147 -194l-148 194h81v90h-290v-90h51l210 -259l-223 -277h-53v-90h276z" />
    <glyph glyph-name="Y" unicode="Y" horiz-adv-x="685" 
d="M15 626h46l212 -351v-185h-98v-90h335v90h-100v185l214 351h47v90h-261v-90h74l-134 -230l-129 230h78v90h-284v-90z" />
    <glyph glyph-name="Z" unicode="Z" horiz-adv-x="630" 
d="M597 0v236h-113v-149h-300l403 519v110h-546v-230h113v143h274l-397 -519v-110h566z" />
    <glyph glyph-name="bracketleft" unicode="[" horiz-adv-x="333" 
d="M256 -146v82h-78v728h78v82h-192v-892h192z" />
    <glyph glyph-name="backslash" unicode="\" horiz-adv-x="620" 
d="M413 0h100l-304 716h-101z" />
    <glyph glyph-name="bracketright" unicode="]" horiz-adv-x="333" 
d="M270 -146v892h-191v-82h77v-728h-77v-82h191z" />
    <glyph glyph-name="asciicircum" unicode="^" horiz-adv-x="660" 
d="M129 176l199 443l203 -443h91l-249 540h-88l-247 -540h91z" />
    <glyph glyph-name="underscore" unicode="_" horiz-adv-x="500" 
d="M500 -131v66h-500v-66h500z" />
    <glyph glyph-name="grave" unicode="`" horiz-adv-x="278" 
d="M-11 756l143 -144h82l-90 144h-135z" />
    <glyph glyph-name="a" unicode="a" horiz-adv-x="574" 
d="M370 0h184v84h-69v239q0 37 -4 68q-3 18 -5 28t-8 22q-25 57 -76 80.5t-121 23.5q-45 0 -84 -9.5t-68.5 -30.5t-46.5 -55t-18 -81h132q0 44 21.5 70t63.5 26q48 0 67.5 -31t19.5 -80q0 -16 -2 -33q-10 0 -29 2q-29 2 -43 2q-15 0 -44 -3q-22 -2 -33 -2q-27 -1 -64.5 -15
t-56.5 -31q-25 -22 -38.5 -53.5t-13.5 -66.5q0 -14 2.5 -29.5t9.5 -39.5v0q9 -41 55.5 -69t102.5 -28t100 24.5t66 72.5v-85zM360 246q-1 -32 -7 -62t-20 -54.5t-37.5 -39.5t-58.5 -15q-32 0 -51 21.5t-19 52.5q0 29 10.5 48.5t28 30t40.5 14.5t51 4h63z" />
    <glyph glyph-name="b" unicode="b" horiz-adv-x="630" 
d="M225 728h-203v-85h70v-558h-70v-85h194v89q29 -56 73.5 -78.5t93.5 -22.5q40 0 72 12t53 29.5t33.5 33.5t16.5 26q22 47 31 94t9 94q0 54 -12 102t-38 85.5t-67.5 59t-97.5 21.5t-95 -21.5t-63 -70.5v275zM341 456q36 0 59.5 -18t35.5 -46t17 -60.5t5 -66.5t-4.5 -65
t-17 -59t-35.5 -45.5t-58 -17.5q-36 0 -60 18t-37.5 47t-18.5 61.5t-5 67.5q0 68 21 115q14 29 40.5 49t57.5 20z" />
    <glyph glyph-name="c" unicode="c" horiz-adv-x="519" 
d="M500 332v200h-102v-62q-20 43 -56.5 59t-90.5 16t-95 -21t-64 -54q-32 -44 -46.5 -93.5t-14.5 -103.5q0 -61 15.5 -112.5t46.5 -90t78 -60.5t110 -22q97 0 157.5 48t64.5 142h-115q-4 -43 -29 -73t-66 -30q-34 0 -57.5 16t-37.5 42.5t-20 58t-6 62.5q0 37 4.5 70.5
t16.5 63.5t36.5 48.5t61.5 18.5q50 0 74 -35.5t26 -87.5h109z" />
    <glyph glyph-name="d" unicode="d" horiz-adv-x="630" 
d="M413 0h194v85h-69v643h-202v-85h69v-177q-27 40 -67.5 59.5t-90.5 19.5q-55 0 -96.5 -21.5t-68 -59.5t-39 -85.5t-12.5 -100.5q0 -74 11 -119.5t28 -73.5q26 -43 70 -69.5t108 -27.5q52 2 93 24.5t72 72.5v-85zM407 272q0 -35 -5 -68t-17.5 -61.5t-37 -46.5t-60.5 -18
q-35 0 -58 17.5t-35.5 45t-17.5 59.5t-5 65t5 65t18 61t36 47t58 18q29 0 54 -16.5t40 -43.5q15 -25 20 -56t5 -68z" />
    <glyph glyph-name="e" unicode="e" 
d="M524 239q0 1 1 4v4v7q1 6 1 7q0 6 -1 16t-1 16q-3 54 -16.5 102t-42.5 79q-35 37 -83 54t-104 17q-59 0 -105 -21.5t-77 -59.5t-46.5 -88t-15.5 -105q0 -54 14 -103t44 -88q18 -24 36.5 -39.5t44.5 -27.5q24 -11 55 -18t56 -7q42 0 82 11t73 33t54 55t24 75h-127
q-7 -39 -33.5 -63t-65.5 -24q-32 0 -55.5 14t-38.5 37.5t-21.5 52.5t-6.5 60h355zM172 316q3 29 10 54.5t20.5 46t35 33t51.5 12.5q27 0 46.5 -13.5t31.5 -35.5t17.5 -47t5.5 -50h-218z" />
    <glyph glyph-name="f" unicode="f" horiz-adv-x="352" 
d="M101 447v-362h-72v-85h293v85h-88v362h91v85h-91v20q0 27 2 44t9 26q24 27 68 27q17 0 50 -5q1 -1 3 -1v90q-46 13 -75 13q-40 0 -72 -9t-64 -30q-30 -19 -42 -52.5t-12 -76.5v-46h-78v-85h78z" />
    <glyph glyph-name="g" unicode="g" horiz-adv-x="630" 
d="M542 447h70v85h-198v-70q-28 42 -71 62.5t-95 20.5q-55 0 -96.5 -21.5t-69.5 -61.5q-24 -33 -36 -79t-12 -99q0 -48 6.5 -89t23.5 -75q30 -58 76 -86t111 -28q56 0 94 21.5t64 70.5q0 -55 -1.5 -80.5t-8.5 -45.5q-10 -32 -44 -48.5t-71 -16.5q-21 0 -41.5 7.5t-31.5 23.5
q-9 17 -13 29h-134q0 -2 1 -9v-9q4 -29 22 -54t43 -38q39 -21 74 -26.5t89 -5.5q51 0 93.5 10t78.5 34q44 29 60.5 70t16.5 100v408zM291 458q29 0 52.5 -17.5t38.5 -45.5t21 -57.5t6 -64.5q0 -31 -6.5 -62.5t-20.5 -58t-38 -43t-58 -16.5q-31 0 -52 14.5t-37 44.5
q-11 22 -18.5 55.5t-7.5 60.5q0 33 5 65.5t18.5 61t37.5 46t59 17.5z" />
    <glyph glyph-name="h" unicode="h" horiz-adv-x="630" 
d="M294 0v85h-65v188q0 42 2.5 66t11.5 47q13 34 34.5 51t56.5 17q29 0 50 -20t23 -49q5 -33 5 -61v-239h-65v-85h265v85h-67v287q0 41 -7.5 71t-29.5 55q-21 24 -56 35.5t-71 11.5q-53 0 -88.5 -19t-63.5 -63v265h-201v-85h68v-558h-68v-85h266z" />
    <glyph glyph-name="i" unicode="i" horiz-adv-x="333" 
d="M303 0v85h-62v447h-204v-85h71v-362h-71v-85h266zM108 735v-122h133v122h-133z" />
    <glyph glyph-name="j" unicode="j" horiz-adv-x="296" 
d="M17 532v-85h71v-448q0 -43 -10.5 -63t-49.5 -20q-12 0 -34 4v-88q12 0 36 -3t36 -3q48 0 82 8.5t57 36.5q10 19 13 43t3 64v554h-204zM221 735h-133v-122h133v122z" />
    <glyph glyph-name="k" unicode="k" horiz-adv-x="611" 
d="M282 0v81h-57v102l83 70l98 -172h-58v-81h245v85h-54l-143 254l127 108h61v85h-261v-81h77l-175 -157v434h-202v-85h69v-558h-69v-85h259z" />
    <glyph glyph-name="l" unicode="l" horiz-adv-x="333" 
d="M302 0v85h-64v643h-201v-85h68v-558h-68v-85h265z" />
    <glyph glyph-name="m" unicode="m" horiz-adv-x="944" 
d="M224 532h-194v-85h70v-362h-70v-85h267v85h-64v200q0 52 7 78q12 40 36.5 62t64.5 22q18 0 35 -9.5t24 -25.5q9 -19 11 -36t2 -45v-246h-61v-85h256v85h-62v205q0 36 3 57.5t14 45.5q26 54 84 54q26 0 42 -11t24 -29.5t10.5 -39t2.5 -45.5v-237h-63v-85h261v85h-65v277
v15q1 7 1 15q0 29 -10 53q-40 100 -156 100q-53 0 -93.5 -25t-61.5 -75q-18 53 -55 76.5t-93 23.5q-117 0 -167 -100v87z" />
    <glyph glyph-name="n" unicode="n" horiz-adv-x="630" 
d="M222 532h-194v-85h70v-362h-70v-85h267v85h-64v203q0 35 3 62t13 50.5t31.5 38t55.5 14.5q26 0 45 -15.5t26 -40.5q5 -15 6 -30t1 -43v-239h-62v-85h261v85h-66v288q0 23 -1 38.5t-6 33.5q-10 39 -53.5 69.5t-102.5 30.5q-110 0 -160 -100v87z" />
    <glyph glyph-name="o" unicode="o" horiz-adv-x="574" 
d="M288 457q32 0 56.5 -18t39.5 -48q14 -28 19 -56.5t5 -65.5q0 -32 -4.5 -63t-14.5 -55q-15 -34 -40 -54.5t-59 -20.5q-32 0 -57.5 18.5t-40.5 48.5q-15 28 -20 57.5t-5 66.5q0 31 6 63.5t19.5 61.5t37.5 47t58 18zM288 -12q60 0 108.5 21t82 59t51 88.5t17.5 108.5
q0 125 -69 202.5t-194 77.5q-53 0 -102.5 -19.5t-83.5 -56.5q-37 -40 -53.5 -89.5t-16.5 -109.5q0 -55 15 -105t46 -89q33 -41 88 -64.5t111 -23.5z" />
    <glyph glyph-name="p" unicode="p" horiz-adv-x="630" 
d="M218 532h-195v-85h70v-524h-70v-85h278v85h-75v157q29 -48 67 -70t84 -22q50 0 98 23t72 63q30 50 40 92.5t10 106.5q0 52 -11 98t-28 71q-37 53 -80 78t-103 25q-49 0 -89.5 -25.5t-67.5 -77.5v90zM345 458q35 0 58.5 -19t35.5 -49t16.5 -63.5t4.5 -67.5q0 -32 -5.5 -63
t-19 -58t-37 -43.5t-57.5 -16.5q-33 0 -57 17.5t-38.5 45.5t-21 60t-6.5 63q0 69 32 130q13 27 38.5 45.5t56.5 18.5z" />
    <glyph glyph-name="q" unicode="q" horiz-adv-x="630" 
d="M404 -77h-75v-85h277v85h-69v524h69v85h-194v-90q-26 56 -67 79.5t-104 23.5t-106 -31.5t-65 -71.5q-20 -37 -29 -80t-9 -89q0 -58 10 -103t37 -91q25 -43 73 -67t100 -24q103 0 152 92v-157zM409 264q0 -31 -6 -63.5t-20 -60t-38 -45t-57 -17.5q-34 0 -57.5 16.5
t-36.5 44t-18.5 58.5t-5.5 63q0 34 4.5 67t16.5 63t35.5 49t58.5 19q36 0 60 -18t38.5 -47.5t20 -62.5t5.5 -66z" />
    <glyph glyph-name="r" unicode="r" horiz-adv-x="407" 
d="M223 532h-195v-85h70v-362h-70v-85h288v85h-85v137q0 40 2 69t11 53q13 34 42.5 54.5t66.5 20.5q17 0 47 -8v130q-3 0 -13 1h-13q-60 0 -98.5 -30.5t-52.5 -92.5v113z" />
    <glyph glyph-name="s" unicode="s" horiz-adv-x="500" 
d="M448 361v171h-94v-44q-20 27 -55 42t-71 15q-45 0 -88.5 -17.5t-59.5 -39.5l-4 -5q-14 -20 -23 -38.5t-9 -41.5l1 -5v-6q0 -92 68 -139q22 -14 45.5 -21t59.5 -14q58 -12 85 -25q14 -7 20 -22t6 -32q0 -29 -23 -47.5t-52 -18.5q-51 0 -76 30t-28 82h-104v-185h96v54
q20 -31 56 -48.5t75 -17.5q53 0 95 19.5t62 46.5q14 20 23.5 50.5t9.5 56.5q0 32 -8.5 57t-28.5 49q-20 25 -57.5 38t-97.5 25q-34 7 -49 11l-10 5q-14 6 -20 10q-16 19 -16 41q0 34 23.5 51t59.5 17q45 0 65.5 -28t25.5 -76h98z" />
    <glyph glyph-name="t" unicode="t" horiz-adv-x="407" 
d="M383 176h-82q0 -48 -7 -74t-29 -26q-9 0 -20 4q-7 3 -11.5 14t-4.5 20v333h133v85h-133v136l-133 -45v-91h-79v-85h79v-265q0 -76 4 -93q16 -71 81 -91q1 0 3 -1q20 -5 31 -7t27 -2q8 0 27.5 3.5t27.5 6.5q47 15 66.5 52.5t19.5 89.5v36z" />
    <glyph glyph-name="u" unicode="u" horiz-adv-x="630" 
d="M406 0h194v85h-70v447h-205v-85h72v-179q0 -84 -12 -115q-12 -30 -33.5 -49t-51.5 -19q-21 0 -39.5 9.5t-27.5 27.5q-8 17 -10.5 37.5t-2.5 55.5v317h-201v-85h68v-264q0 -16 1.5 -36.5t5.5 -57.5q14 -44 54.5 -72.5t98.5 -28.5q55 0 97 26t62 75v-89z" />
    <glyph glyph-name="v" unicode="v" horiz-adv-x="593" 
d="M15 447h42l158 -447h165l157 447h41v85h-234v-85h67l-112 -339h-1l-99 339h66v85h-250v-85z" />
    <glyph glyph-name="w" unicode="w" horiz-adv-x="926" 
d="M17 532v-85h47l128 -447h168l109 399l96 -399h168l128 447h49v85h-236v-85h68l-90 -344h-1l-99 429h-162l-113 -429h-1l-76 344h71v85h-254z" />
    <glyph glyph-name="x" unicode="x" horiz-adv-x="593" 
d="M339 0h240v85h-44l-151 190l140 172h49v85h-220v-80h56l-101 -129l-102 129h56v80h-240v-85h49l135 -172l-153 -190h-41v-85h218v80h-59l115 147l112 -147h-59v-80z" />
    <glyph glyph-name="y" unicode="y" horiz-adv-x="593" 
d="M15 447h43l183 -454l-7 -17q-14 -34 -27.5 -45.5t-47.5 -11.5q-12 0 -36 2l-18 1v-92q26 -5 80 -5q36 0 62 10t44 28.5t30.5 43t26.5 60.5l190 480h42v85h-236v-85h66l-102 -294l-5 13l-102 281h69v85h-255v-85z" />
    <glyph glyph-name="z" unicode="z" horiz-adv-x="519" 
d="M473 0v178h-102v-98h-183l285 354v98h-421v-165h102v85h171l-281 -349v-103h429z" />
    <glyph glyph-name="braceleft" unicode="{" horiz-adv-x="320" 
d="M215 169q0 58 -18 89.5t-69 44.5q53 12 70 45t17 95v183q0 50 17.5 78t60.5 42q-59 0 -92 -6.5t-56 -29.5q-19 -21 -24.5 -50t-5.5 -71v-173q0 -36 -4.5 -55.5t-23.5 -34.5q-23 -18 -51 -23q38 -11 58 -36q14 -18 17.5 -34t3.5 -45v-195q0 -41 7.5 -68t33.5 -45
q25 -17 53 -21.5t84 -4.5q-45 14 -61.5 41t-16.5 79v195z" />
    <glyph glyph-name="bar" unicode="|" horiz-adv-x="660" 
d="M284 0h92v716h-92v-716z" />
    <glyph glyph-name="braceright" unicode="}" horiz-adv-x="320" 
d="M114 443q0 -61 17.5 -94.5t69.5 -45.5q-51 -13 -69 -44.5t-18 -89.5v-195q0 -51 -16.5 -78.5t-60.5 -41.5q56 0 84 4.5t52 21.5q26 18 33.5 45t7.5 68v195q0 29 3.5 45t17.5 34q21 25 58 36q-28 5 -51 23q-18 15 -23 34.5t-5 55.5v173q0 42 -5.5 71t-24.5 50
q-21 21 -50 28.5t-66 7.5q-1 0 -16 -1h-15q43 -13 60 -41t17 -78v-183z" />
    <glyph glyph-name="asciitilde" unicode="~" horiz-adv-x="660" 
d="M543 448q-2 -3 -8 -11q-21 -31 -39 -48t-44 -17q-18 0 -39 7t-58 22q-46 18 -78.5 28t-63.5 10q-55 0 -93.5 -33.5t-75.5 -91.5l72 -47q3 4 8 13q23 35 42 53t49 18q14 0 29.5 -4.5t37.5 -12.5q9 -4 18 -7l48 -19l3 -1q33 -12 54.5 -18t46.5 -6q52 0 85.5 28t73.5 85l4 6
z" />
    <glyph glyph-name="exclamdown" unicode="&#xa1;" horiz-adv-x="333" 
d="M236 422v132h-136v-132h136zM244 -165l-25 518h-102l-27 -518h154z" />
    <glyph glyph-name="cent" unicode="&#xa2;" 
d="M500 334v199h-102v-61q-13 29 -35 45.5t-50 22.5v99h-88v-93q-49 -5 -86 -29.5t-61 -62.5t-35.5 -84t-11.5 -95q0 -111 49.5 -188t144.5 -94v-90h88v87q85 8 135.5 56.5t54.5 133.5h-115q-4 -43 -29 -73t-66 -30q-34 0 -57.5 16t-37.5 42.5t-20 58t-6 62.5q0 37 4.5 70.5
t16.5 63.5t36.5 48.5t61.5 18.5q50 0 74 -35.5t26 -87.5h109z" />
    <glyph glyph-name="sterling" unicode="&#xa3;" 
d="M101 339v-249h-73v-90h491v204h-122v-114h-159v249h110v90h-110v62q0 61 9.5 95t43.5 48q18 6 34 6q34 0 53 -27t19 -72h127q-1 96 -53.5 141.5t-148.5 45.5q-80 0 -139.5 -36t-74.5 -109q-5 -23 -6 -49.5t-1 -73.5v-31h-78v-90h78z" />
    <glyph glyph-name="currency" unicode="&#xa4;" 
d="M22 156l70 -67l53 52q62 -42 136 -42q68 0 133 42l52 -52l69 67l-53 53q21 36 30.5 65.5t9.5 67.5q0 78 -40 135l53 52l-69 69l-52 -52q-65 40 -135 40q-76 0 -135 -41l-52 53l-69 -69l54 -53q-19 -26 -30 -62.5t-11 -70.5q0 -35 11 -71t30 -62zM279 476q55 0 94 -39.5
t39 -95.5q0 -55 -39.5 -93.5t-94.5 -38.5t-93.5 39.5t-38.5 94.5t39 94t94 39z" />
    <glyph glyph-name="yen" unicode="&#xa5;" 
d="M-50 626h46l119 -196h-137v-55h170l32 -45h-202v-55h230v-185h-98v-90h335v90h-100v185h230v55h-202l33 45h169v55h-135l119 196h47v90h-261v-90h74l-134 -230l-129 230h78v90h-284v-90z" />
    <glyph glyph-name="brokenbar" unicode="&#xa6;" horiz-adv-x="660" 
d="M284 0h92v286h-92v-286zM284 430h92v286h-92v-286z" />
    <glyph glyph-name="section" unicode="&#xa7;" 
d="M484 550q-11 90 -67.5 134t-149.5 44q-38 0 -73 -12.5t-62.5 -35.5t-43 -55.5t-15.5 -71.5q0 -32 16.5 -62.5t43.5 -50.5q3 -2 7 -4q4 -3 7 -5h-1q-10 -2 -14 -6q-33 -16 -53 -48.5t-20 -69.5q0 -35 13 -61t35.5 -44.5t47 -30.5t63.5 -29q2 -1 7 -3l85 -34
q27 -12 39.5 -26t12.5 -40q0 -12 -7.5 -25.5t-16.5 -21.5q-17 -15 -50 -15q-88 0 -94 87h-129q0 -44 19 -77t50.5 -53t70.5 -29.5t79 -9.5q38 0 74 9t63 28q31 22 50 57t19 73q0 37 -21.5 72t-54.5 52q37 13 60.5 46.5t23.5 73.5q0 51 -27 85.5t-77 56.5l-97 42l-18 8
q-25 10 -40 18.5t-27 21.5q-14 17 -14 38q0 33 22.5 49.5t56.5 16.5q38 0 59.5 -25.5t21.5 -66.5h126zM276 239l-7 3q-45 17 -69.5 35.5t-24.5 54.5q0 22 12 41.5t32 28.5l103 -43q29 -13 43.5 -28t14.5 -42q0 -17 -9.5 -31.5t-26.5 -32.5l-1 -1q-2 -1 -5 -4t-5 -4z" />
    <glyph glyph-name="dieresis" unicode="&#xa8;" horiz-adv-x="278" 
d="M-23 619h116v116h-116v-116zM185 619h116v116h-116v-116z" />
    <glyph glyph-name="copyright" unicode="&#xa9;" horiz-adv-x="820" 
d="M779 361q0 74 -28.5 141t-79.5 118t-118.5 79.5t-141.5 28.5q-75 0 -142.5 -28.5t-119 -80t-80 -119t-28.5 -142.5q0 -74 28.5 -141.5t79 -119t117.5 -80.5t141 -29q77 0 145 28.5t119.5 80t79.5 119.5t28 145zM411 38q-65 0 -123.5 25t-102.5 69.5t-69 103t-25 123.5
q0 64 24.5 122.5t69 103t102.5 69t122 24.5q66 0 124.5 -24.5t102.5 -69t68.5 -103.5t24.5 -126q0 -64 -24.5 -121.5t-68.5 -101t-102 -68t-123 -24.5v-2zM552 283q-16 -48 -50 -74.5t-83 -26.5q-73 0 -112.5 50.5t-39.5 125.5t40.5 128t113.5 53q49 0 82 -24.5t41 -69.5
l67 15q-13 58 -68 89.5t-119 31.5q-49 0 -90 -16.5t-71 -47.5t-46 -72.5t-16 -90.5q0 -94 57.5 -154t152.5 -60q68 0 124 32t76 92z" />
    <glyph glyph-name="ordfeminine" unicode="&#xaa;" horiz-adv-x="344" 
d="M221 386h120v52h-45v144q0 13 -2 41q-3 16 -9 30q-16 35 -49.5 49t-78.5 14q-62 0 -101 -25.5t-40 -80.5h86q0 57 55 57q31 0 43.5 -18.5t12.5 -47.5v-11q-1 -8 -1 -10q-4 0 -14 1q-23 2 -33 2q-12 0 -33 -2q-11 -1 -17 -1q-17 -1 -41.5 -9t-36.5 -19q-34 -28 -34 -73
q0 -17 3.5 -32.5t12.5 -25.5l2 -2q11 -12 18.5 -18t20.5 -11q25 -11 53 -11q37 0 65.5 14.5t42.5 44.5v-52zM215 535q-2 -44 -19.5 -73.5t-60.5 -29.5q-21 0 -33.5 12.5t-12.5 31.5q0 34 23 46.5t62 12.5h41zM3 258h338v64h-338v-64z" />
    <glyph glyph-name="guillemotleft" unicode="&#xab;" horiz-adv-x="500" 
d="M140 66h97l-82 218l82 215h-97l-83 -215zM323 66h97l-83 218l83 215h-97l-86 -215z" />
    <glyph glyph-name="logicalnot" unicode="&#xac;" horiz-adv-x="660" 
d="M491 174h93v308h-508v-93h415v-215z" />
    <glyph glyph-name="minus" unicode="&#xad;" horiz-adv-x="660" 
d="M76 312h508v92h-508v-92z" />
    <glyph glyph-name="minus" unicode="&#x2212;" horiz-adv-x="660" 
d="M76 312h508v92h-508v-92z" />
    <glyph glyph-name="registered" unicode="&#xae;" horiz-adv-x="820" 
d="M779 357q0 75 -28.5 143t-79 119t-118 80t-142.5 29t-142.5 -28.5t-119 -79.5t-80 -118.5t-28.5 -142.5t28.5 -142.5t79 -119t117.5 -80.5t142 -29t143 28.5t119 79.5t80 118t29 143zM413 38q-66 0 -125 24.5t-103 69t-69 103t-25 124.5q0 65 24.5 122.5t68.5 102t102 69
t122 24.5q65 0 124 -24.5t103 -68t69 -102t25 -123.5q0 -64 -24.5 -122.5t-68 -103t-101 -70t-122.5 -25.5zM482 342q63 2 98.5 31t35.5 89q0 33 -12.5 59.5t-39.5 40.5q-21 13 -46 16.5t-58 3.5h-202v-439h63v199h96l119 -199h72zM321 389v149h123q22 0 40.5 -2.5
t34.5 -9.5t25.5 -22t9.5 -38q0 -25 -10 -40.5t-27 -23.5t-37 -10.5t-44 -2.5h-115z" />
    <glyph glyph-name="macron" unicode="&#xaf;" horiz-adv-x="278" 
d="M284 646v65h-289v-65h289z" />
    <glyph glyph-name="degree" unicode="&#xb0;" horiz-adv-x="400" 
d="M350 578q0 30 -11.5 57.5t-32.5 48.5t-48.5 32.5t-57.5 11.5t-57.5 -11.5t-48.5 -32.5t-32.5 -48t-11.5 -58q0 -30 11.5 -57.5t32.5 -48.5t48.5 -32.5t57.5 -11.5t57.5 11.5t48.5 32t32.5 48t11.5 58.5zM293 578q0 -39 -27.5 -66t-65.5 -27q-39 0 -66 27t-27 66
q0 38 27 65.5t65 27.5q39 0 66.5 -27.5t27.5 -65.5z" />
    <glyph glyph-name="plusminus" unicode="&#xb1;" horiz-adv-x="660" 
d="M76 419v-92h208v-193h92v193h208v92h-208v193h-92v-193h-208zM76 0h508v92h-508v-92z" />
    <glyph glyph-name="twosuperior" unicode="&#xb2;" horiz-adv-x="333" 
d="M321 291v117h-74v-63h-149q7 6 16 13t16 13q59 49 119 114q33 36 49.5 64t16.5 63q0 24 -11.5 48.5t-30.5 39.5q-21 15 -49 21.5t-58 6.5q-71 0 -110.5 -34.5t-42.5 -99.5h88q0 32 16 55.5t49 23.5q27 0 42.5 -17.5t15.5 -42.5q0 -21 -10.5 -38.5t-30.5 -41.5l-2 -3
q-27 -32 -75 -76q-9 -8 -31 -28q-43 -40 -62 -56v-79h308z" />
    <glyph glyph-name="threesuperior" unicode="&#xb3;" horiz-adv-x="333" 
d="M154 484q23 0 35 -2.5t21 -10.5q11 -11 16 -27.5t5 -32.5q0 -26 -13 -44q-7 -11 -20 -18t-28 -7q-34 0 -50.5 19t-18.5 51h-89q0 -63 42 -95.5t112 -32.5q13 0 31 2.5t33 5.5q40 12 66 39q15 17 20.5 35t5.5 42q0 10 -3 23t-7 22q-12 28 -33.5 40.5t-57.5 16.5v2
q27 4 42 12q31 17 41.5 37t10.5 55q0 18 -9 41q-10 24 -33 42t-51 24q-21 5 -51 5q-59 0 -100 -23t-51 -73q-2 -10 -4 -28v-3h89q0 30 15 51.5t46 21.5q29 0 45 -18.5t16 -45.5q0 -72 -90 -72v-54h17z" />
    <glyph glyph-name="acute" unicode="&#xb4;" horiz-adv-x="278" 
d="M64 612h82l143 144h-135z" />
    <glyph glyph-name="mu" unicode="&#xb5;" horiz-adv-x="630" 
d="M530 85v447h-205v-85h72v-179q0 -84 -12 -115q-12 -30 -33.5 -49t-51.5 -19q-21 0 -39.5 9.5t-27.5 27.5q-8 17 -10.5 37.5t-2.5 55.5v317h-201v-85h68v-264q0 -30 13 -90q8 -34 10 -51v-5q1 -3 1 -5q0 -18 -12 -54t-12 -52q3 -36 20 -62t46 -26q25 0 46.5 22t21.5 52v7
q-1 5 -1 7q-1 6 -3 16q-4 17 -4 24q0 11 7.5 16.5t26.5 5.5q55 0 97 26t60 75h2v-89h194v85h-70z" />
    <glyph glyph-name="paragraph" unicode="&#xb6;" horiz-adv-x="540" 
d="M221 716q-47 0 -80.5 -9t-63.5 -35q-29 -25 -45 -60.5t-16 -74.5q0 -37 13.5 -69.5t38 -56.5t57 -37.5t69.5 -14.5v-486h90v729h98v-729h90v729h69v114h-320z" />
    <glyph glyph-name="periodcentered" unicode="&#xb7;" horiz-adv-x="278" 
d="M71 423v-132h136v132h-136z" />
    <glyph glyph-name="periodcentered" unicode="&#x2219;" horiz-adv-x="278" 
d="M71 423v-132h136v132h-136z" />
    <glyph glyph-name="cedilla" unicode="&#xb8;" horiz-adv-x="278" 
d="M27 -188q11 -3 20 -6q29 -10 48 -14t44 -4q41 0 79 19q16 9 26.5 29t10.5 40q0 16 -9.5 31t-23.5 24q-22 12 -53 12q-14 0 -32 -2l41 66h-50l-56 -89l21 -20q2 2 4 2q15 7 35 7t33 -9.5t13 -25.5q0 -9 -4 -18q-6 -8 -10 -11t-14 -7l-6 -2q-10 -2 -20 -2q-33 0 -78 19z
" />
    <glyph glyph-name="onesuperior" unicode="&#xb9;" horiz-adv-x="333" 
d="M41 578l23 15q26 16 36 23l12 8q22 16 29 22l3 3v-297h-64v-54h213v54h-60v376h-84q-40 -33 -108 -77v-73z" />
    <glyph glyph-name="ordmasculine" unicode="&#xba;" horiz-adv-x="344" 
d="M172 663q21 0 36.5 -11.5t25.5 -29.5q16 -29 16 -73q0 -20 -3 -38.5t-9 -33.5q-10 -20 -26 -32.5t-38 -12.5q-21 0 -38 11t-26 29q-17 29 -17 75q0 19 4 39t13 37.5t24.5 28.5t37.5 11zM172 378q77 0 122.5 48t45.5 120q0 76 -45 123t-126 47q-34 0 -66 -12t-55 -34
q-24 -24 -34.5 -54t-10.5 -67q0 -33 9.5 -63t29.5 -55q22 -25 58 -39t72 -14zM3 258h337v64h-337v-64z" />
    <glyph glyph-name="guillemotright" unicode="&#xbb;" horiz-adv-x="500" 
d="M256 66h98l92 218l-92 215h-98l82 -215zM74 66h97l85 218l-85 215h-97l82 -215z" />
    <glyph glyph-name="onequarter" unicode="&#xbc;" horiz-adv-x="834" 
d="M25 578l23 15q26 16 36 23l12 8q22 16 29 22l3 3v-297h-64v-54h213v54h-60v376h-84q-40 -33 -108 -77v-73zM671 356v-194h-128zM671 110v-59h-61v-51h194v51h-46v59h51v52h-51v268h-107l-171 -246v-74h191zM280 0l386 716h-80l-388 -716h82z" />
    <glyph glyph-name="onehalf" unicode="&#xbd;" horiz-adv-x="834" 
d="M25 578l23 15q26 16 36 23l12 8q22 16 29 22l3 3v-297h-64v-54h213v54h-60v376h-84q-40 -33 -108 -77v-73zM809 0v117h-74v-63h-149q7 6 16 13t16 13q59 49 119 114q33 36 49.5 64t16.5 63q0 24 -11.5 48.5t-30.5 39.5q-21 15 -49 21.5t-58 6.5q-71 0 -110.5 -34.5
t-42.5 -99.5h88q0 32 16 55.5t49 23.5q27 0 42.5 -17.5t15.5 -42.5q0 -21 -10.5 -38.5t-30.5 -41.5l-2 -3q-27 -32 -75 -76q-9 -8 -31 -28q-43 -40 -62 -56v-79h308zM260 0l386 716h-80l-388 -716h82z" />
    <glyph glyph-name="threequarters" unicode="&#xbe;" horiz-adv-x="834" 
d="M671 356v-194h-128zM671 110v-59h-61v-51h194v51h-46v59h51v52h-51v268h-107l-171 -246v-74h191zM290 0l386 716h-80l-388 -716h82zM167 484q23 0 35 -2.5t21 -10.5q11 -11 16 -27.5t5 -32.5q0 -26 -13 -44q-7 -11 -20 -18t-28 -7q-34 0 -50.5 19t-18.5 51h-89
q0 -63 42 -95.5t112 -32.5q13 0 31 2.5t33 5.5q40 12 66 39q15 17 20.5 35t5.5 42q0 10 -3 23t-7 22q-12 28 -33.5 40.5t-57.5 16.5v2q27 4 42 12q31 17 41.5 37t10.5 55q0 18 -9 41q-10 24 -33 42t-51 24q-21 5 -51 5q-59 0 -100 -23t-51 -73q-2 -10 -4 -28v-3h89
q0 30 15 51.5t46 21.5q29 0 45 -18.5t16 -45.5q0 -72 -90 -72v-54h17z" />
    <glyph glyph-name="questiondown" unicode="&#xbf;" horiz-adv-x="500" 
d="M337 17q-2 -43 -21 -72t-59 -29q-18 0 -34.5 4.5t-26.5 16.5q-11 12 -17.5 31t-6.5 37q0 43 17 70.5t56 67.5l1 1l6 6q45 47 63 77.5t21 85.5q4 25 4 56h-136q0 -34 -3 -54.5t-10.5 -35t-18.5 -27.5t-35 -35q-49 -47 -75.5 -93.5t-26.5 -104.5q0 -95 59 -144.5t156 -49.5
q95 0 156.5 49.5t63.5 142.5h-133zM204 425h136v132h-136v-132z" />
    <glyph glyph-name="Agrave" unicode="&#xc0;" horiz-adv-x="778" 
d="M239 940l143 -144h82l-90 144h-135zM281 309l98 291h1l98 -291h-197zM288 0v90h-87l46 129h266l45 -129h-86v-90h290v90h-57l-233 626h-164l-235 -626h-57v-90h272z" />
    <glyph glyph-name="Aacute" unicode="&#xc1;" horiz-adv-x="778" 
d="M314 796h82l143 144h-135zM281 309l98 291h1l98 -291h-197zM288 0v90h-87l46 129h266l45 -129h-86v-90h290v90h-57l-233 626h-164l-235 -626h-57v-90h272z" />
    <glyph glyph-name="Acircumflex" unicode="&#xc2;" horiz-adv-x="778" 
d="M389 885l70 -89h93l-108 144h-111l-106 -144h91zM281 309l98 291h1l98 -291h-197zM288 0v90h-87l46 129h266l45 -129h-86v-90h290v90h-57l-233 626h-164l-235 -626h-57v-90h272z" />
    <glyph glyph-name="Atilde" unicode="&#xc3;" horiz-adv-x="778" 
d="M508 926q0 -2 -1 -4t-1 -4q-1 -2 -3 -7t-3 -7t-6 -8q-1 -2 -3 -4q-14 -10 -33 -10q-18 0 -56 16q-25 11 -44.5 16.5t-41.5 5.5q-28 0 -52 -17.5t-36 -44.5q-2 -7 -7 -20q-3 -8 -5 -12q-1 -5 -2 -11q-1 -7 -2 -12h55q2 4 3 10q4 13 8 17q12 17 32 17q18 0 54 -13l12 -4
t14 -5q43 -15 63 -15q44 0 71 26.5t37 72.5q2 5 4 17h-57zM281 309l98 291h1l98 -291h-197zM288 0v90h-87l46 129h266l45 -129h-86v-90h290v90h-57l-233 626h-164l-235 -626h-57v-90h272z" />
    <glyph glyph-name="Adieresis" unicode="&#xc4;" horiz-adv-x="778" 
d="M227 803h116v116h-116v-116zM435 803h116v116h-116v-116zM281 309l98 291h1l98 -291h-197zM288 0v90h-87l46 129h266l45 -129h-86v-90h290v90h-57l-233 626h-164l-235 -626h-57v-90h272z" />
    <glyph glyph-name="Aring" unicode="&#xc5;" horiz-adv-x="778" 
d="M389 769q43 0 73.5 32t30.5 75q0 41 -32 70.5t-73 29.5q-43 0 -73 -31t-30 -73t31 -72.5t73 -30.5zM389 819q-22 0 -38.5 16t-16.5 38t16 39t38 17q21 0 38.5 -16.5t17.5 -37.5q0 -22 -16.5 -39t-38.5 -17zM281 309l98 291h1l98 -291h-197zM288 0v90h-87l46 129h266
l45 -129h-86v-90h290v90h-57l-233 626h-164l-235 -626h-57v-90h272z" />
    <glyph glyph-name="AE" unicode="&#xc6;" horiz-adv-x="1000" 
d="M347 716l-294 -626h-39v-90h248v90h-77l57 125h251l20 -125h-89v-90h532v228h-110v-138h-205l-37 227h88v-89h94v273h-94v-94h-102l-32 219h283v-128h109v218h-603zM286 317l141 315h1l50 -315h-192z" />
    <glyph glyph-name="Ccedilla" unicode="&#xc7;" horiz-adv-x="722" 
d="M249 -188q11 -3 20 -6q29 -10 48 -14t44 -4q41 0 79 19q16 9 26.5 29t10.5 40q0 16 -9.5 31t-23.5 24q-22 12 -53 12q-14 0 -32 -2l41 66h-50l-56 -89l21 -20q2 2 4 2q15 7 35 7t33 -9.5t13 -25.5q0 -9 -4 -18q-6 -8 -10 -11t-14 -7l-6 -2q-10 -2 -20 -2q-33 0 -78 19z
M670 458v258h-112v-67q-32 43 -85.5 61t-117.5 18q-74 0 -118 -18.5t-91 -60.5q-41 -36 -70.5 -109t-29.5 -173q0 -83 20 -152t61 -120t105 -79t149 -28q60 0 113.5 15.5t94.5 46t64.5 78.5t24.5 110h-140q0 -71 -45 -114.5t-116 -43.5q-54 0 -90 25.5t-56.5 66.5t-28.5 89
t-8 99t9 99t30.5 88t59 64.5t91.5 24.5q80 0 120 -48t45 -130h121z" />
    <glyph glyph-name="Egrave" unicode="&#xc8;" horiz-adv-x="667" 
d="M184 940l143 -144h82l-90 144h-135zM616 0v228h-110v-138h-262v228h105v-90h95v273h-95v-93h-105v218h262v-129h110v219h-592v-90h83v-536h-83v-90h592z" />
    <glyph glyph-name="Eacute" unicode="&#xc9;" horiz-adv-x="667" 
d="M259 796h82l143 144h-135zM616 0v228h-110v-138h-262v228h105v-90h95v273h-95v-93h-105v218h262v-129h110v219h-592v-90h83v-536h-83v-90h592z" />
    <glyph glyph-name="Ecircumflex" unicode="&#xca;" horiz-adv-x="667" 
d="M334 885l70 -89h93l-108 144h-111l-106 -144h91zM616 0v228h-110v-138h-262v228h105v-90h95v273h-95v-93h-105v218h262v-129h110v219h-592v-90h83v-536h-83v-90h592z" />
    <glyph glyph-name="Edieresis" unicode="&#xcb;" horiz-adv-x="667" 
d="M172 803h116v116h-116v-116zM380 803h116v116h-116v-116zM616 0v228h-110v-138h-262v228h105v-90h95v273h-95v-93h-105v218h262v-129h110v219h-592v-90h83v-536h-83v-90h592z" />
    <glyph glyph-name="Igrave" unicode="&#xcc;" horiz-adv-x="352" 
d="M26 940l143 -144h82l-90 144h-135zM107 626v-536h-87v-90h312v90h-88v536h88v90h-312v-90h87z" />
    <glyph glyph-name="Iacute" unicode="&#xcd;" horiz-adv-x="352" 
d="M101 796h82l143 144h-135zM107 626v-536h-87v-90h312v90h-88v536h88v90h-312v-90h87z" />
    <glyph glyph-name="Icircumflex" unicode="&#xce;" horiz-adv-x="352" 
d="M176 885l70 -89h93l-108 144h-111l-106 -144h91zM107 626v-536h-87v-90h312v90h-88v536h88v90h-312v-90h87z" />
    <glyph glyph-name="Idieresis" unicode="&#xcf;" horiz-adv-x="352" 
d="M14 803h116v116h-116v-116zM222 803h116v116h-116v-116zM107 626v-536h-87v-90h312v90h-88v536h88v90h-312v-90h87z" />
    <glyph glyph-name="Eth" unicode="&#xd0;" horiz-adv-x="741" 
d="M406 408h-160v218h84q111 0 166 -69.5t55 -194.5q0 -143 -58 -207.5t-165 -64.5h-82v253h160v65zM31 343h78v-253h-84v-90h293q190 0 282.5 86t92.5 277q0 166 -86 259.5t-249 93.5h-333v-90h84v-218h-78v-65z" />
    <glyph glyph-name="Ntilde" unicode="&#xd1;" horiz-adv-x="778" 
d="M508 926q0 -2 -1 -4t-1 -4q-1 -2 -3 -7t-3 -7t-6 -8q-1 -2 -3 -4q-14 -10 -33 -10q-18 0 -56 16q-25 11 -44.5 16.5t-41.5 5.5q-28 0 -52 -17.5t-36 -44.5q-2 -7 -7 -20q-3 -8 -5 -12q-1 -5 -2 -11q-1 -7 -2 -12h55q2 4 3 10q4 13 8 17q12 17 32 17q18 0 54 -13l12 -4
t14 -5q43 -15 63 -15q44 0 71 26.5t37 72.5q2 5 4 17h-57zM308 0v90h-79v488h1l272 -578h177v626h78v90h-282v-90h84v-473h-1l-266 563h-266v-90h83v-536h-83v-90h282z" />
    <glyph glyph-name="Ograve" unicode="&#xd2;" horiz-adv-x="778" 
d="M239 940l143 -144h82l-90 144h-135zM389 639q102 0 158 -90q18 -29 27.5 -84t9.5 -101q0 -36 -2 -65t-8 -52q-10 -38 -21.5 -64t-32.5 -49q-52 -57 -132 -57q-56 0 -94.5 25.5t-60.5 68t-31 91.5t-9 101q0 53 7 98t27 80q25 46 67 72t95 26zM386 728q-74 0 -141.5 -27.5
t-114.5 -80.5q-47 -55 -66 -124t-19 -152q0 -68 22 -137.5t64 -114.5q52 -56 114 -80t144 -24q77 0 141 24.5t113 76.5q40 44 68 119q12 32 16.5 70t4.5 84q0 79 -22.5 146t-67 116.5t-109.5 76.5t-147 27z" />
    <glyph glyph-name="Oacute" unicode="&#xd3;" horiz-adv-x="778" 
d="M314 796h82l143 144h-135zM389 639q102 0 158 -90q18 -29 27.5 -84t9.5 -101q0 -36 -2 -65t-8 -52q-10 -38 -21.5 -64t-32.5 -49q-52 -57 -132 -57q-56 0 -94.5 25.5t-60.5 68t-31 91.5t-9 101q0 53 7 98t27 80q25 46 67 72t95 26zM386 728q-74 0 -141.5 -27.5
t-114.5 -80.5q-47 -55 -66 -124t-19 -152q0 -68 22 -137.5t64 -114.5q52 -56 114 -80t144 -24q77 0 141 24.5t113 76.5q40 44 68 119q12 32 16.5 70t4.5 84q0 79 -22.5 146t-67 116.5t-109.5 76.5t-147 27z" />
    <glyph glyph-name="Ocircumflex" unicode="&#xd4;" horiz-adv-x="778" 
d="M389 885l70 -89h93l-108 144h-111l-106 -144h91zM389 639q102 0 158 -90q18 -29 27.5 -84t9.5 -101q0 -36 -2 -65t-8 -52q-10 -38 -21.5 -64t-32.5 -49q-52 -57 -132 -57q-56 0 -94.5 25.5t-60.5 68t-31 91.5t-9 101q0 53 7 98t27 80q25 46 67 72t95 26zM386 728
q-74 0 -141.5 -27.5t-114.5 -80.5q-47 -55 -66 -124t-19 -152q0 -68 22 -137.5t64 -114.5q52 -56 114 -80t144 -24q77 0 141 24.5t113 76.5q40 44 68 119q12 32 16.5 70t4.5 84q0 79 -22.5 146t-67 116.5t-109.5 76.5t-147 27z" />
    <glyph glyph-name="Otilde" unicode="&#xd5;" horiz-adv-x="778" 
d="M508 926q0 -2 -1 -4t-1 -4q-1 -2 -3 -7t-3 -7t-6 -8q-1 -2 -3 -4q-14 -10 -33 -10q-18 0 -56 16q-25 11 -44.5 16.5t-41.5 5.5q-28 0 -52 -17.5t-36 -44.5q-2 -7 -7 -20q-3 -8 -5 -12q-1 -5 -2 -11q-1 -7 -2 -12h55q2 4 3 10q4 13 8 17q12 17 32 17q18 0 54 -13l12 -4
t14 -5q43 -15 63 -15q44 0 71 26.5t37 72.5q2 5 4 17h-57zM389 639q102 0 158 -90q18 -29 27.5 -84t9.5 -101q0 -36 -2 -65t-8 -52q-10 -38 -21.5 -64t-32.5 -49q-52 -57 -132 -57q-56 0 -94.5 25.5t-60.5 68t-31 91.5t-9 101q0 53 7 98t27 80q25 46 67 72t95 26zM386 728
q-74 0 -141.5 -27.5t-114.5 -80.5q-47 -55 -66 -124t-19 -152q0 -68 22 -137.5t64 -114.5q52 -56 114 -80t144 -24q77 0 141 24.5t113 76.5q40 44 68 119q12 32 16.5 70t4.5 84q0 79 -22.5 146t-67 116.5t-109.5 76.5t-147 27z" />
    <glyph glyph-name="Odieresis" unicode="&#xd6;" horiz-adv-x="778" 
d="M227 803h116v116h-116v-116zM435 803h116v116h-116v-116zM389 639q102 0 158 -90q18 -29 27.5 -84t9.5 -101q0 -36 -2 -65t-8 -52q-10 -38 -21.5 -64t-32.5 -49q-52 -57 -132 -57q-56 0 -94.5 25.5t-60.5 68t-31 91.5t-9 101q0 53 7 98t27 80q25 46 67 72t95 26zM386 728
q-74 0 -141.5 -27.5t-114.5 -80.5q-47 -55 -66 -124t-19 -152q0 -68 22 -137.5t64 -114.5q52 -56 114 -80t144 -24q77 0 141 24.5t113 76.5q40 44 68 119q12 32 16.5 70t4.5 84q0 79 -22.5 146t-67 116.5t-109.5 76.5t-147 27z" />
    <glyph glyph-name="multiply" unicode="&#xd7;" horiz-adv-x="660" 
d="M76 169l65 -65l189 189l189 -189l65 65l-189 189l189 189l-65 65l-189 -189l-189 189l-65 -65l189 -189z" />
    <glyph glyph-name="Oslash" unicode="&#xd8;" horiz-adv-x="778" 
d="M217 209q-13 33 -18.5 72.5t-5.5 81.5q0 53 7 98t27 80q25 46 67 72t95 26q90 0 144 -69zM561 518q12 -33 17.5 -76t5.5 -78q0 -36 -2 -65t-8 -52q-10 -38 -21.5 -64t-32.5 -49q-52 -57 -132 -57q-49 0 -85.5 20t-59.5 57zM719 698l-44 34l-67 -76q-86 72 -222 72
q-74 0 -141.5 -27.5t-114.5 -80.5q-47 -55 -66 -124t-19 -152q0 -65 20 -131t59 -112l-78 -90l44 -34l74 85q46 -39 101 -56.5t124 -17.5q77 0 141 24.5t113 76.5q40 44 68 119q12 32 16.5 70t4.5 84q0 157 -84 256z" />
    <glyph glyph-name="Ugrave" unicode="&#xd9;" horiz-adv-x="722" 
d="M211 940l143 -144h82l-90 144h-135zM15 626h72v-336q0 -61 5 -98.5t23 -70.5q37 -68 95 -99q27 -15 69 -24.5t77 -9.5q37 0 82.5 9t71.5 25q72 41 106 119q12 28 15.5 63.5t3.5 103.5v318h72v90h-285v-90h88v-330q0 -45 -1.5 -67t-5.5 -38q-10 -31 -26.5 -57t-42.5 -36
q-18 -8 -32.5 -11.5t-32.5 -3.5q-38 0 -69 15t-50 45q-17 28 -21.5 59t-4.5 84v340h89v90h-298v-90z" />
    <glyph glyph-name="Uacute" unicode="&#xda;" horiz-adv-x="722" 
d="M286 796h82l143 144h-135zM15 626h72v-336q0 -61 5 -98.5t23 -70.5q37 -68 95 -99q27 -15 69 -24.5t77 -9.5q37 0 82.5 9t71.5 25q72 41 106 119q12 28 15.5 63.5t3.5 103.5v318h72v90h-285v-90h88v-330q0 -45 -1.5 -67t-5.5 -38q-10 -31 -26.5 -57t-42.5 -36
q-18 -8 -32.5 -11.5t-32.5 -3.5q-38 0 -69 15t-50 45q-17 28 -21.5 59t-4.5 84v340h89v90h-298v-90z" />
    <glyph glyph-name="Ucircumflex" unicode="&#xdb;" horiz-adv-x="722" 
d="M361 885l70 -89h93l-108 144h-111l-106 -144h91zM15 626h72v-336q0 -61 5 -98.5t23 -70.5q37 -68 95 -99q27 -15 69 -24.5t77 -9.5q37 0 82.5 9t71.5 25q72 41 106 119q12 28 15.5 63.5t3.5 103.5v318h72v90h-285v-90h88v-330q0 -45 -1.5 -67t-5.5 -38q-10 -31 -26.5 -57
t-42.5 -36q-18 -8 -32.5 -11.5t-32.5 -3.5q-38 0 -69 15t-50 45q-17 28 -21.5 59t-4.5 84v340h89v90h-298v-90z" />
    <glyph glyph-name="Udieresis" unicode="&#xdc;" horiz-adv-x="722" 
d="M199 803h116v116h-116v-116zM407 803h116v116h-116v-116zM15 626h72v-336q0 -61 5 -98.5t23 -70.5q37 -68 95 -99q27 -15 69 -24.5t77 -9.5q37 0 82.5 9t71.5 25q72 41 106 119q12 28 15.5 63.5t3.5 103.5v318h72v90h-285v-90h88v-330q0 -45 -1.5 -67t-5.5 -38
q-10 -31 -26.5 -57t-42.5 -36q-18 -8 -32.5 -11.5t-32.5 -3.5q-38 0 -69 15t-50 45q-17 28 -21.5 59t-4.5 84v340h89v90h-298v-90z" />
    <glyph glyph-name="Yacute" unicode="&#xdd;" horiz-adv-x="685" 
d="M268 796h82l143 144h-135zM15 626h46l212 -351v-185h-98v-90h335v90h-100v185l214 351h47v90h-261v-90h74l-134 -230l-129 230h78v90h-284v-90z" />
    <glyph glyph-name="Thorn" unicode="&#xde;" horiz-adv-x="630" 
d="M28 0h305v90h-84v72h109q53 0 96 11t75.5 35t50 62.5t17.5 91.5t-17.5 91.5t-49.5 62.5t-75.5 35t-96.5 11h-109v64h84v90h-305v-90h84v-536h-84v-90zM249 472h77q61 0 95 -27.5t34 -82.5t-34 -82.5t-95 -27.5h-77v220z" />
    <glyph glyph-name="germandbls" unicode="&#xdf;" horiz-adv-x="611" 
d="M267 0v85h-45v405q0 80 8 107q9 30 34.5 46t57.5 16q44 0 67.5 -27t23.5 -72q0 -46 -19 -77t-61 -38l-25 -1v-97q69 0 100.5 -35.5t31.5 -101.5q0 -58 -28 -91.5t-87 -33.5v-85q37 0 56 1q96 2 146.5 58t50.5 153q0 34 -11.5 68.5t-32.5 59.5q-18 23 -58 39
q-13 5 -31 9.5t-39 5.5v1q69 11 105 54q35 43 35 112q0 48 -16.5 83t-46.5 59q-57 43 -153 43q-44 0 -93 -13q-15 -3 -25 -7t-23 -11q-65 -36 -82.5 -87t-17.5 -141v-402h-70v-85h248z" />
    <glyph glyph-name="agrave" unicode="&#xe0;" horiz-adv-x="574" 
d="M137 756l143 -144h82l-90 144h-135zM370 0h184v84h-69v239q0 37 -4 68q-3 18 -5 28t-8 22q-25 57 -76 80.5t-121 23.5q-45 0 -84 -9.5t-68.5 -30.5t-46.5 -55t-18 -81h132q0 44 21.5 70t63.5 26q48 0 67.5 -31t19.5 -80q0 -16 -2 -33q-10 0 -29 2q-29 2 -43 2
q-15 0 -44 -3q-22 -2 -33 -2q-27 -1 -64.5 -15t-56.5 -31q-25 -22 -38.5 -53.5t-13.5 -66.5q0 -14 2.5 -29.5t9.5 -39.5v0q9 -41 55.5 -69t102.5 -28t100 24.5t66 72.5v-85zM360 246q-1 -32 -7 -62t-20 -54.5t-37.5 -39.5t-58.5 -15q-32 0 -51 21.5t-19 52.5q0 29 10.5 48.5
t28 30t40.5 14.5t51 4h63z" />
    <glyph glyph-name="aacute" unicode="&#xe1;" horiz-adv-x="574" 
d="M212 612h82l143 144h-135zM370 0h184v84h-69v239q0 37 -4 68q-3 18 -5 28t-8 22q-25 57 -76 80.5t-121 23.5q-45 0 -84 -9.5t-68.5 -30.5t-46.5 -55t-18 -81h132q0 44 21.5 70t63.5 26q48 0 67.5 -31t19.5 -80q0 -16 -2 -33q-10 0 -29 2q-29 2 -43 2q-15 0 -44 -3
q-22 -2 -33 -2q-27 -1 -64.5 -15t-56.5 -31q-25 -22 -38.5 -53.5t-13.5 -66.5q0 -14 2.5 -29.5t9.5 -39.5v0q9 -41 55.5 -69t102.5 -28t100 24.5t66 72.5v-85zM360 246q-1 -32 -7 -62t-20 -54.5t-37.5 -39.5t-58.5 -15q-32 0 -51 21.5t-19 52.5q0 29 10.5 48.5t28 30
t40.5 14.5t51 4h63z" />
    <glyph glyph-name="acircumflex" unicode="&#xe2;" horiz-adv-x="574" 
d="M287 701l70 -89h93l-108 144h-111l-106 -144h91zM370 0h184v84h-69v239q0 37 -4 68q-3 18 -5 28t-8 22q-25 57 -76 80.5t-121 23.5q-45 0 -84 -9.5t-68.5 -30.5t-46.5 -55t-18 -81h132q0 44 21.5 70t63.5 26q48 0 67.5 -31t19.5 -80q0 -16 -2 -33q-10 0 -29 2
q-29 2 -43 2q-15 0 -44 -3q-22 -2 -33 -2q-27 -1 -64.5 -15t-56.5 -31q-25 -22 -38.5 -53.5t-13.5 -66.5q0 -14 2.5 -29.5t9.5 -39.5v0q9 -41 55.5 -69t102.5 -28t100 24.5t66 72.5v-85zM360 246q-1 -32 -7 -62t-20 -54.5t-37.5 -39.5t-58.5 -15q-32 0 -51 21.5t-19 52.5
q0 29 10.5 48.5t28 30t40.5 14.5t51 4h63z" />
    <glyph glyph-name="atilde" unicode="&#xe3;" horiz-adv-x="574" 
d="M406 742q0 -2 -1 -4t-1 -4q-1 -2 -3 -7t-3 -7t-6 -8q-1 -2 -3 -4q-14 -10 -33 -10q-18 0 -56 16q-25 11 -44.5 16.5t-41.5 5.5q-28 0 -52 -17.5t-36 -44.5q-2 -7 -7 -20q-3 -8 -5 -12q-1 -5 -2 -11q-1 -7 -2 -12h55q2 4 3 10q4 13 8 17q12 17 32 17q18 0 54 -13l12 -4
t14 -5q43 -15 63 -15q44 0 71 26.5t37 72.5q2 5 4 17h-57zM370 0h184v84h-69v239q0 37 -4 68q-3 18 -5 28t-8 22q-25 57 -76 80.5t-121 23.5q-45 0 -84 -9.5t-68.5 -30.5t-46.5 -55t-18 -81h132q0 44 21.5 70t63.5 26q48 0 67.5 -31t19.5 -80q0 -16 -2 -33q-10 0 -29 2
q-29 2 -43 2q-15 0 -44 -3q-22 -2 -33 -2q-27 -1 -64.5 -15t-56.5 -31q-25 -22 -38.5 -53.5t-13.5 -66.5q0 -14 2.5 -29.5t9.5 -39.5v0q9 -41 55.5 -69t102.5 -28t100 24.5t66 72.5v-85zM360 246q-1 -32 -7 -62t-20 -54.5t-37.5 -39.5t-58.5 -15q-32 0 -51 21.5t-19 52.5
q0 29 10.5 48.5t28 30t40.5 14.5t51 4h63z" />
    <glyph glyph-name="adieresis" unicode="&#xe4;" horiz-adv-x="574" 
d="M125 619h116v116h-116v-116zM333 619h116v116h-116v-116zM370 0h184v84h-69v239q0 37 -4 68q-3 18 -5 28t-8 22q-25 57 -76 80.5t-121 23.5q-45 0 -84 -9.5t-68.5 -30.5t-46.5 -55t-18 -81h132q0 44 21.5 70t63.5 26q48 0 67.5 -31t19.5 -80q0 -16 -2 -33q-10 0 -29 2
q-29 2 -43 2q-15 0 -44 -3q-22 -2 -33 -2q-27 -1 -64.5 -15t-56.5 -31q-25 -22 -38.5 -53.5t-13.5 -66.5q0 -14 2.5 -29.5t9.5 -39.5v0q9 -41 55.5 -69t102.5 -28t100 24.5t66 72.5v-85zM360 246q-1 -32 -7 -62t-20 -54.5t-37.5 -39.5t-58.5 -15q-32 0 -51 21.5t-19 52.5
q0 29 10.5 48.5t28 30t40.5 14.5t51 4h63z" />
    <glyph glyph-name="aring" unicode="&#xe5;" horiz-adv-x="574" 
d="M277 585q43 0 73.5 32t30.5 75q0 41 -32 70.5t-73 29.5q-43 0 -73 -31t-30 -73t31 -72.5t73 -30.5zM277 635q-22 0 -38.5 16t-16.5 38t16 39t38 17q21 0 38.5 -16.5t17.5 -37.5q0 -22 -16.5 -39t-38.5 -17zM370 0h184v84h-69v239q0 37 -4 68q-3 18 -5 28t-8 22
q-25 57 -76 80.5t-121 23.5q-45 0 -84 -9.5t-68.5 -30.5t-46.5 -55t-18 -81h132q0 44 21.5 70t63.5 26q48 0 67.5 -31t19.5 -80q0 -16 -2 -33q-10 0 -29 2q-29 2 -43 2q-15 0 -44 -3q-22 -2 -33 -2q-27 -1 -64.5 -15t-56.5 -31q-25 -22 -38.5 -53.5t-13.5 -66.5
q0 -14 2.5 -29.5t9.5 -39.5v0q9 -41 55.5 -69t102.5 -28t100 24.5t66 72.5v-85zM360 246q-1 -32 -7 -62t-20 -54.5t-37.5 -39.5t-58.5 -15q-32 0 -51 21.5t-19 52.5q0 29 10.5 48.5t28 30t40.5 14.5t51 4h63z" />
    <glyph glyph-name="ae" unicode="&#xe6;" horiz-adv-x="833" 
d="M478 314q0 20 1 30q3 51 31.5 87.5t76.5 36.5q40 0 61 -33t24 -77q0 -4 1 -15q1 -16 1 -29h-196zM354 237q0 -27 -6.5 -56.5t-20 -55t-35 -41.5t-49.5 -16q-37 0 -60.5 22t-23.5 58q0 45 37 71q16 12 34 15t54 3h70zM299 314q-52 0 -94.5 -3.5t-72.5 -14.5
q-43 -15 -70.5 -53t-27.5 -83q0 -34 9 -65.5t29 -53.5q25 -27 62 -40t77 -13q31 0 83 13q56 18 84 63q3 4 8 12l4 8t4 10t3 9q22 -60 75 -87.5t122 -27.5q37 0 72.5 12t64.5 35t46.5 55t19.5 70h-125q-2 -35 -25.5 -61.5t-58.5 -26.5q-32 0 -54 13t-34.5 35.5t-18 49.5
t-5.5 56v11h327v27q0 31 -1 51t-5 40q-16 93 -68 141.5t-144 48.5q-51 0 -93.5 -19t-66.5 -60q-18 45 -61 62t-100 17q-93 0 -147.5 -37t-63.5 -126h126q0 6 2 9q1 4 1 6q1 8 2 11q11 34 31.5 47t57.5 13q28 0 45 -12t24.5 -32.5t9.5 -43.5t2 -56v-10h-55z" />
    <glyph glyph-name="ccedilla" unicode="&#xe7;" horiz-adv-x="519" 
d="M148 -188q11 -3 20 -6q29 -10 48 -14t44 -4q41 0 79 19q16 9 26.5 29t10.5 40q0 16 -9.5 31t-23.5 24q-22 12 -53 12q-14 0 -32 -2l41 66h-50l-56 -89l21 -20q2 2 4 2q15 7 35 7t33 -9.5t13 -25.5q0 -9 -4 -18q-6 -8 -10 -11t-14 -7l-6 -2q-10 -2 -20 -2q-33 0 -78 19z
M500 332v200h-102v-62q-20 43 -56.5 59t-90.5 16t-95 -21t-64 -54q-32 -44 -46.5 -93.5t-14.5 -103.5q0 -61 15.5 -112.5t46.5 -90t78 -60.5t110 -22q97 0 157.5 48t64.5 142h-115q-4 -43 -29 -73t-66 -30q-34 0 -57.5 16t-37.5 42.5t-20 58t-6 62.5q0 37 4.5 70.5
t16.5 63.5t36.5 48.5t61.5 18.5q50 0 74 -35.5t26 -87.5h109z" />
    <glyph glyph-name="egrave" unicode="&#xe8;" 
d="M128 756l143 -144h82l-90 144h-135zM524 239q0 1 1 4v4v7q1 6 1 7q0 6 -1 16t-1 16q-3 54 -16.5 102t-42.5 79q-35 37 -83 54t-104 17q-59 0 -105 -21.5t-77 -59.5t-46.5 -88t-15.5 -105q0 -54 14 -103t44 -88q18 -24 36.5 -39.5t44.5 -27.5q24 -11 55 -18t56 -7
q42 0 82 11t73 33t54 55t24 75h-127q-7 -39 -33.5 -63t-65.5 -24q-32 0 -55.5 14t-38.5 37.5t-21.5 52.5t-6.5 60h355zM172 316q3 29 10 54.5t20.5 46t35 33t51.5 12.5q27 0 46.5 -13.5t31.5 -35.5t17.5 -47t5.5 -50h-218z" />
    <glyph glyph-name="eacute" unicode="&#xe9;" 
d="M203 612h82l143 144h-135zM524 239q0 1 1 4v4v7q1 6 1 7q0 6 -1 16t-1 16q-3 54 -16.5 102t-42.5 79q-35 37 -83 54t-104 17q-59 0 -105 -21.5t-77 -59.5t-46.5 -88t-15.5 -105q0 -54 14 -103t44 -88q18 -24 36.5 -39.5t44.5 -27.5q24 -11 55 -18t56 -7q42 0 82 11t73 33
t54 55t24 75h-127q-7 -39 -33.5 -63t-65.5 -24q-32 0 -55.5 14t-38.5 37.5t-21.5 52.5t-6.5 60h355zM172 316q3 29 10 54.5t20.5 46t35 33t51.5 12.5q27 0 46.5 -13.5t31.5 -35.5t17.5 -47t5.5 -50h-218z" />
    <glyph glyph-name="ecircumflex" unicode="&#xea;" 
d="M278 701l70 -89h93l-108 144h-111l-106 -144h91zM524 239q0 1 1 4v4v7q1 6 1 7q0 6 -1 16t-1 16q-3 54 -16.5 102t-42.5 79q-35 37 -83 54t-104 17q-59 0 -105 -21.5t-77 -59.5t-46.5 -88t-15.5 -105q0 -54 14 -103t44 -88q18 -24 36.5 -39.5t44.5 -27.5q24 -11 55 -18
t56 -7q42 0 82 11t73 33t54 55t24 75h-127q-7 -39 -33.5 -63t-65.5 -24q-32 0 -55.5 14t-38.5 37.5t-21.5 52.5t-6.5 60h355zM172 316q3 29 10 54.5t20.5 46t35 33t51.5 12.5q27 0 46.5 -13.5t31.5 -35.5t17.5 -47t5.5 -50h-218z" />
    <glyph glyph-name="edieresis" unicode="&#xeb;" 
d="M116 619h116v116h-116v-116zM324 619h116v116h-116v-116zM524 239q0 1 1 4v4v7q1 6 1 7q0 6 -1 16t-1 16q-3 54 -16.5 102t-42.5 79q-35 37 -83 54t-104 17q-59 0 -105 -21.5t-77 -59.5t-46.5 -88t-15.5 -105q0 -54 14 -103t44 -88q18 -24 36.5 -39.5t44.5 -27.5
q24 -11 55 -18t56 -7q42 0 82 11t73 33t54 55t24 75h-127q-7 -39 -33.5 -63t-65.5 -24q-32 0 -55.5 14t-38.5 37.5t-21.5 52.5t-6.5 60h355zM172 316q3 29 10 54.5t20.5 46t35 33t51.5 12.5q27 0 46.5 -13.5t31.5 -35.5t17.5 -47t5.5 -50h-218z" />
    <glyph glyph-name="igrave" unicode="&#xec;" horiz-adv-x="333" 
d="M17 756l143 -144h82l-90 144h-135zM303 0v86h-62v446h-204v-85h71v-362h-71v-85h266z" />
    <glyph glyph-name="iacute" unicode="&#xed;" horiz-adv-x="333" 
d="M92 612h82l143 144h-135zM303 0v86h-62v446h-204v-85h71v-362h-71v-85h266z" />
    <glyph glyph-name="icircumflex" unicode="&#xee;" horiz-adv-x="333" 
d="M167 701l70 -89h93l-108 144h-111l-106 -144h91zM303 0v86h-62v446h-204v-85h71v-362h-71v-85h266z" />
    <glyph glyph-name="idieresis" unicode="&#xef;" horiz-adv-x="333" 
d="M5 619h116v116h-116v-116zM213 619h116v116h-116v-116zM303 0v86h-62v446h-204v-85h71v-362h-71v-85h266z" />
    <glyph glyph-name="eth" unicode="&#xf0;" horiz-adv-x="574" 
d="M287 76q-58 0 -89 49.5t-31 124.5t31 124.5t89 49.5t89 -49.5t31 -124.5t-31 -124.5t-89 -49.5zM166 552l91 58q46 -27 79.5 -61.5t50.5 -72.5l-2 -2q-28 21 -55 29.5t-63 8.5q-48 0 -91.5 -18.5t-76.5 -51.5t-52 -79t-19 -98q0 -58 17.5 -108.5t51 -88.5t82 -59
t108.5 -21q123 0 191 79.5t68 224.5q0 131 -49.5 226.5t-141.5 154.5l75 47l-38 42l-92 -59q-75 34 -167 51l-28 -86q48 -8 95 -29l-70 -45z" />
    <glyph glyph-name="ntilde" unicode="&#xf1;" horiz-adv-x="630" 
d="M434 742q0 -2 -1 -4t-1 -4q-1 -2 -3 -7t-3 -7t-6 -8q-1 -2 -3 -4q-14 -10 -33 -10q-18 0 -56 16q-25 11 -44.5 16.5t-41.5 5.5q-28 0 -52 -17.5t-36 -44.5q-2 -7 -7 -20q-3 -8 -5 -12q-1 -5 -2 -11q-1 -7 -2 -12h55q2 4 3 10q4 13 8 17q12 17 32 17q18 0 54 -13l12 -4
t14 -5q43 -15 63 -15q44 0 71 26.5t37 72.5q2 5 4 17h-57zM222 532h-194v-85h70v-362h-70v-85h267v85h-64v203q0 35 3 62t13 50.5t31.5 38t55.5 14.5q26 0 45 -15.5t26 -40.5q5 -15 6 -30t1 -43v-239h-62v-85h261v85h-66v288q0 23 -1 38.5t-6 33.5q-10 39 -53.5 69.5
t-102.5 30.5q-110 0 -160 -100v87z" />
    <glyph glyph-name="ograve" unicode="&#xf2;" horiz-adv-x="574" 
d="M137 756l143 -144h82l-90 144h-135zM288 457q32 0 56.5 -18t39.5 -48q14 -28 19 -56.5t5 -65.5q0 -32 -4.5 -63t-14.5 -55q-15 -34 -40 -54.5t-59 -20.5q-32 0 -57.5 18.5t-40.5 48.5q-15 28 -20 57.5t-5 66.5q0 31 6 63.5t19.5 61.5t37.5 47t58 18zM288 -12
q60 0 108.5 21t82 59t51 88.5t17.5 108.5q0 125 -69 202.5t-194 77.5q-53 0 -102.5 -19.5t-83.5 -56.5q-37 -40 -53.5 -89.5t-16.5 -109.5q0 -55 15 -105t46 -89q33 -41 88 -64.5t111 -23.5z" />
    <glyph glyph-name="oacute" unicode="&#xf3;" horiz-adv-x="574" 
d="M212 612h82l143 144h-135zM288 457q32 0 56.5 -18t39.5 -48q14 -28 19 -56.5t5 -65.5q0 -32 -4.5 -63t-14.5 -55q-15 -34 -40 -54.5t-59 -20.5q-32 0 -57.5 18.5t-40.5 48.5q-15 28 -20 57.5t-5 66.5q0 31 6 63.5t19.5 61.5t37.5 47t58 18zM288 -12q60 0 108.5 21t82 59
t51 88.5t17.5 108.5q0 125 -69 202.5t-194 77.5q-53 0 -102.5 -19.5t-83.5 -56.5q-37 -40 -53.5 -89.5t-16.5 -109.5q0 -55 15 -105t46 -89q33 -41 88 -64.5t111 -23.5z" />
    <glyph glyph-name="ocircumflex" unicode="&#xf4;" horiz-adv-x="574" 
d="M287 701l70 -89h93l-108 144h-111l-106 -144h91zM288 457q32 0 56.5 -18t39.5 -48q14 -28 19 -56.5t5 -65.5q0 -32 -4.5 -63t-14.5 -55q-15 -34 -40 -54.5t-59 -20.5q-32 0 -57.5 18.5t-40.5 48.5q-15 28 -20 57.5t-5 66.5q0 31 6 63.5t19.5 61.5t37.5 47t58 18zM288 -12
q60 0 108.5 21t82 59t51 88.5t17.5 108.5q0 125 -69 202.5t-194 77.5q-53 0 -102.5 -19.5t-83.5 -56.5q-37 -40 -53.5 -89.5t-16.5 -109.5q0 -55 15 -105t46 -89q33 -41 88 -64.5t111 -23.5z" />
    <glyph glyph-name="otilde" unicode="&#xf5;" horiz-adv-x="574" 
d="M406 742q0 -2 -1 -4t-1 -4q-1 -2 -3 -7t-3 -7t-6 -8q-1 -2 -3 -4q-14 -10 -33 -10q-18 0 -56 16q-25 11 -44.5 16.5t-41.5 5.5q-28 0 -52 -17.5t-36 -44.5q-2 -7 -7 -20q-3 -8 -5 -12q-1 -5 -2 -11q-1 -7 -2 -12h55q2 4 3 10q4 13 8 17q12 17 32 17q18 0 54 -13l12 -4
t14 -5q43 -15 63 -15q44 0 71 26.5t37 72.5q2 5 4 17h-57zM288 457q32 0 56.5 -18t39.5 -48q14 -28 19 -56.5t5 -65.5q0 -32 -4.5 -63t-14.5 -55q-15 -34 -40 -54.5t-59 -20.5q-32 0 -57.5 18.5t-40.5 48.5q-15 28 -20 57.5t-5 66.5q0 31 6 63.5t19.5 61.5t37.5 47t58 18z
M288 -12q60 0 108.5 21t82 59t51 88.5t17.5 108.5q0 125 -69 202.5t-194 77.5q-53 0 -102.5 -19.5t-83.5 -56.5q-37 -40 -53.5 -89.5t-16.5 -109.5q0 -55 15 -105t46 -89q33 -41 88 -64.5t111 -23.5z" />
    <glyph glyph-name="odieresis" unicode="&#xf6;" horiz-adv-x="574" 
d="M125 619h116v116h-116v-116zM333 619h116v116h-116v-116zM288 457q32 0 56.5 -18t39.5 -48q14 -28 19 -56.5t5 -65.5q0 -32 -4.5 -63t-14.5 -55q-15 -34 -40 -54.5t-59 -20.5q-32 0 -57.5 18.5t-40.5 48.5q-15 28 -20 57.5t-5 66.5q0 31 6 63.5t19.5 61.5t37.5 47t58 18z
M288 -12q60 0 108.5 21t82 59t51 88.5t17.5 108.5q0 125 -69 202.5t-194 77.5q-53 0 -102.5 -19.5t-83.5 -56.5q-37 -40 -53.5 -89.5t-16.5 -109.5q0 -55 15 -105t46 -89q33 -41 88 -64.5t111 -23.5z" />
    <glyph glyph-name="divide" unicode="&#xf7;" horiz-adv-x="660" 
d="M76 404v-92h508v92h-508zM398 104v132h-136v-132h136zM398 480v132h-136v-132h136z" />
    <glyph glyph-name="oslash" unicode="&#xf8;" horiz-adv-x="574" 
d="M177 178q-11 34 -11 89q0 31 6 63.5t19.5 61.5t37.5 47t58 18q27 0 49 -13.5t37 -37.5zM125 40q35 -24 77 -38t85 -14q60 0 108.5 21t82 59t51 88.5t17.5 108.5q0 57 -15.5 106.5t-44.5 85.5l58 67l-42 33l-54 -63q-67 51 -165 51q-53 0 -102.5 -19.5t-83.5 -56.5
q-37 -40 -53.5 -89.5t-16.5 -109.5q0 -55 15 -105t46 -89l-66 -77l42 -30zM397 353q10 -32 10 -84q0 -32 -4.5 -63t-14.5 -55q-15 -33 -39.5 -54t-58.5 -21q-28 0 -51 14t-38 37z" />
    <glyph glyph-name="ugrave" unicode="&#xf9;" horiz-adv-x="630" 
d="M165 756l143 -144h82l-90 144h-135zM406 0h194v85h-70v447h-205v-85h72v-179q0 -84 -12 -115q-12 -30 -33.5 -49t-51.5 -19q-21 0 -39.5 9.5t-27.5 27.5q-8 17 -10.5 37.5t-2.5 55.5v317h-201v-85h68v-264q0 -16 1.5 -36.5t5.5 -57.5q14 -44 54.5 -72.5t98.5 -28.5
q55 0 97 26t62 75v-89z" />
    <glyph glyph-name="uacute" unicode="&#xfa;" horiz-adv-x="630" 
d="M240 612h82l143 144h-135zM406 0h194v85h-70v447h-205v-85h72v-179q0 -84 -12 -115q-12 -30 -33.5 -49t-51.5 -19q-21 0 -39.5 9.5t-27.5 27.5q-8 17 -10.5 37.5t-2.5 55.5v317h-201v-85h68v-264q0 -16 1.5 -36.5t5.5 -57.5q14 -44 54.5 -72.5t98.5 -28.5q55 0 97 26
t62 75v-89z" />
    <glyph glyph-name="ucircumflex" unicode="&#xfb;" horiz-adv-x="630" 
d="M315 701l70 -89h93l-108 144h-111l-106 -144h91zM406 0h194v85h-70v447h-205v-85h72v-179q0 -84 -12 -115q-12 -30 -33.5 -49t-51.5 -19q-21 0 -39.5 9.5t-27.5 27.5q-8 17 -10.5 37.5t-2.5 55.5v317h-201v-85h68v-264q0 -16 1.5 -36.5t5.5 -57.5q14 -44 54.5 -72.5
t98.5 -28.5q55 0 97 26t62 75v-89z" />
    <glyph glyph-name="udieresis" unicode="&#xfc;" horiz-adv-x="630" 
d="M153 619h116v116h-116v-116zM361 619h116v116h-116v-116zM406 0h194v85h-70v447h-205v-85h72v-179q0 -84 -12 -115q-12 -30 -33.5 -49t-51.5 -19q-21 0 -39.5 9.5t-27.5 27.5q-8 17 -10.5 37.5t-2.5 55.5v317h-201v-85h68v-264q0 -16 1.5 -36.5t5.5 -57.5
q14 -44 54.5 -72.5t98.5 -28.5q55 0 97 26t62 75v-89z" />
    <glyph glyph-name="yacute" unicode="&#xfd;" horiz-adv-x="593" 
d="M222 612h82l143 144h-135zM15 447h43l183 -454l-7 -17q-14 -34 -27.5 -45.5t-47.5 -11.5q-12 0 -36 2l-18 1v-92q26 -5 80 -5q36 0 62 10t44 28.5t30.5 43t26.5 60.5l190 480h42v85h-236v-85h66l-102 -294l-5 13l-102 281h69v85h-255v-85z" />
    <glyph glyph-name="thorn" unicode="&#xfe;" horiz-adv-x="630" 
d="M341 78q-33 0 -57 17.5t-38.5 45.5t-21 60t-6.5 63q0 30 7.5 62.5t22.5 62t39.5 48t57.5 18.5q35 0 58.5 -18.5t35.5 -48t16.5 -62.5t4.5 -67q0 -32 -5.5 -63t-19 -58t-37 -43.5t-57.5 -16.5zM93 661v-738h-70v-85h278v85h-75v157h2q28 -48 65.5 -70t83.5 -22
q59 0 101.5 23.5t68.5 63.5t38 91t12 107q0 54 -13 103t-40.5 87t-70 60t-98.5 22q-94 0 -147 -86h-2v287h-203v-85h70z" />
    <glyph glyph-name="ydieresis" unicode="&#xff;" horiz-adv-x="593" 
d="M135 619h116v116h-116v-116zM343 619h116v116h-116v-116zM15 447h43l183 -454l-7 -17q-14 -34 -27.5 -45.5t-47.5 -11.5q-12 0 -36 2l-18 1v-92q26 -5 80 -5q36 0 62 10t44 28.5t30.5 43t26.5 60.5l190 480h42v85h-236v-85h66l-102 -294l-5 13l-102 281h69v85h-255v-85z
" />
    <glyph glyph-name="OE" unicode="&#x152;" horiz-adv-x="1000" 
d="M949 0v226h-109v-136h-237v228h90v-92h90v272h-90v-90h-90v218h237v-128h109v218h-334q-23 0 -70 2q-31 2 -47 2l-42 2q-13 0 -37 2q-33 3 -50 3q-71 0 -134.5 -26t-106.5 -77q-46 -55 -65.5 -119t-19.5 -142q0 -56 7 -99t26 -88q18 -44 50.5 -81t71.5 -59
q81 -45 176 -45q23 0 66 4q44 5 64 5h445zM476 88q-43 -6 -87 -6q-20 0 -47 5q-37 7 -66 28.5t-48 53t-30 68t-13 73.5q-2 34 -2 51q0 29 5 62t15 65.5t25.5 60t37.5 45.5q31 26 59 35t70 9q27 0 81 -6v-544z" />
    <glyph glyph-name="oe" unicode="&#x153;" horiz-adv-x="852" 
d="M825 233v28q-1 22 -1 27q-1 54 -12.5 99.5t-35.5 81t-64 56t-96 20.5q-47 0 -82 -14.5t-68 -47.5q-16 -24 -23 -37q-22 53 -66.5 76t-105.5 23q-43 0 -82.5 -13t-69.5 -40q-32 -29 -51 -63t-27 -76q-3 -12 -6 -32.5t-3 -30.5q0 -37 4 -69q9 -102 70.5 -167.5t162.5 -65.5
q22 0 54.5 8t51.5 18q18 11 39 31.5t28 36.5q2 -3 4 -7q2 -5 4 -8q21 -30 67 -57q17 -9 44.5 -15.5t47.5 -6.5q84 0 143 45t65 127h-126v-7q-2 -37 -22.5 -59.5t-57.5 -22.5q-30 0 -51 15t-33 39t-17 52t-5 56h320zM278 462q29 0 51.5 -21.5t34.5 -51.5q9 -26 13 -58t4 -66
q0 -30 -4 -62t-15.5 -61.5t-32.5 -48.5t-53 -19t-54 18t-34 46t-17 59.5t-5 61.5q0 34 4 67.5t16 64.5t34.5 51t57.5 20zM506 311q0 14 1 21q1 22 7.5 45t18 43t29.5 32t42 12q31 0 49.5 -13t27.5 -34.5t11.5 -43.5t3.5 -56v-6h-190z" />
    <glyph glyph-name="Scaron" unicode="&#x160;" horiz-adv-x="574" 
d="M450 940h-93l-70 -89l-71 89h-91l106 -144h111zM528 480v236h-112v-60q-25 40 -68.5 56t-97.5 16q-59 0 -101.5 -19.5t-66.5 -52.5q-17 -23 -30.5 -58t-13.5 -78q0 -74 47 -123q25 -25 52 -39t69 -29l92 -35q54 -20 80 -42t26 -69q0 -50 -33 -76.5t-84 -26.5
q-35 0 -60.5 13.5t-41 37.5t-22.5 54t-7 64h-118v-249h112v67q25 -43 68 -61t100 -18q53 0 103.5 17.5t80.5 61.5q21 25 32 56t11 72q0 34 -7 59q-10 36 -22.5 58t-38.5 40q-23 17 -47.5 28.5t-58.5 23.5l-87 33q-23 8 -40.5 15.5t-32.5 19t-24.5 27.5t-9.5 37q0 44 24 74
q14 17 35.5 23.5t48.5 6.5q60 0 91.5 -37t34.5 -100q1 -8 1 -23h116z" />
    <glyph glyph-name="scaron" unicode="&#x161;" horiz-adv-x="500" 
d="M413 756h-93l-70 -89l-71 89h-91l106 -144h111zM448 361v171h-94v-44q-20 27 -55 42t-71 15q-45 0 -88.5 -17.5t-59.5 -39.5l-4 -5q-14 -20 -23 -38.5t-9 -41.5l1 -5v-6q0 -92 68 -139q22 -14 45.5 -21t59.5 -14q58 -12 85 -25q14 -7 20 -22t6 -32q0 -29 -23 -47.5
t-52 -18.5q-51 0 -76 30t-28 82h-104v-185h96v54q20 -31 56 -48.5t75 -17.5q53 0 95 19.5t62 46.5q14 20 23.5 50.5t9.5 56.5q0 32 -8.5 57t-28.5 49q-20 25 -57.5 38t-97.5 25q-34 7 -49 11l-10 5q-14 6 -20 10q-16 19 -16 41q0 34 23.5 51t59.5 17q45 0 65.5 -28t25.5 -76
h98z" />
    <glyph glyph-name="Ydieresis" unicode="&#x178;" horiz-adv-x="685" 
d="M181 803h116v116h-116v-116zM389 803h116v116h-116v-116zM15 626h46l212 -351v-185h-98v-90h335v90h-100v185l214 351h47v90h-261v-90h74l-134 -230l-129 230h78v90h-284v-90z" />
    <glyph glyph-name="florin" unicode="&#x192;" 
d="M-2 -151q44 -7 77 -7q38 0 76.5 12.5t64.5 36.5q28 26 42.5 62.5t22.5 84.5l60 353h106l14 81h-106q2 11 7 38q5 36 11.5 60t20.5 43q11 14 26.5 20t35.5 6q17 0 41 -4l15 82q-48 11 -79 11q-24 0 -44 -4q-48 -8 -78 -27t-46.5 -45t-24 -55.5t-17.5 -82.5q-4 -25 -7 -42
h-92l-14 -81h91q-6 -34 -13 -89q-22 -144 -36 -215q-3 -14 -4 -21q-6 -36 -11.5 -57t-16.5 -39t-30.5 -28t-49.5 -10q-12 0 -27 2z" />
    <glyph glyph-name="circumflex" unicode="&#x2c6;" horiz-adv-x="278" 
d="M139 701l70 -89h93l-108 144h-111l-106 -144h91z" />
    <glyph glyph-name="tilde" unicode="&#x2dc;" horiz-adv-x="278" 
d="M258 742q0 -2 -1 -4t-1 -4q-1 -2 -3 -7t-3 -7t-6 -8q-1 -2 -3 -4q-14 -10 -33 -10q-18 0 -56 16q-25 11 -44.5 16.5t-41.5 5.5q-28 0 -52 -17.5t-36 -44.5q-2 -7 -7 -20q-3 -8 -5 -12q-1 -5 -2 -11q-1 -7 -2 -12h55q2 4 3 10q4 13 8 17q12 17 32 17q18 0 54 -13l12 -4
t14 -5q43 -15 63 -15q44 0 71 26.5t37 72.5q2 5 4 17h-57z" />
    <glyph glyph-name="endash" unicode="&#x2013;" horiz-adv-x="500" 
d="M0 234h500v99h-500v-99z" />
    <glyph glyph-name="emdash" unicode="&#x2014;" horiz-adv-x="1000" 
d="M0 234h1000v99h-1000v-99z" />
    <glyph glyph-name="quoteleft" unicode="&#x2018;" horiz-adv-x="278" 
d="M207 461v132h-52l53 135h-90l-47 -135v-132h136z" />
    <glyph glyph-name="quoteright" unicode="&#x2019;" horiz-adv-x="278" 
d="M71 728v-132h52l-54 -136h91l47 136v132h-136z" />
    <glyph glyph-name="quotesinglbase" unicode="&#x201a;" horiz-adv-x="200" 
d="M122 -134l47 134v132h-136v-132h52l-54 -134h91z" />
    <glyph glyph-name="quotedblleft" unicode="&#x201c;" 
d="M236 461v131h-52l53 136h-90l-47 -136v-131h136zM460 461v131h-51l51 136h-88l-48 -136v-131h136z" />
    <glyph glyph-name="quotedblright" unicode="&#x201d;" 
d="M324 728v-132h52l-53 -136h89l48 136v132h-136zM100 728v-132h52l-54 -136h91l47 136v132h-136z" />
    <glyph glyph-name="quotedblbase" unicode="&#x201e;" 
d="M323 132v-132h52l-53 -134h89l48 134v132h-136zM99 132v-132h52l-54 -134h91l47 134v132h-136z" />
    <glyph glyph-name="dagger" unicode="&#x2020;" 
d="M216 458v-458h124v458h161v95h-161v163h-124v-163h-160v-95h160z" />
    <glyph glyph-name="daggerdbl" unicode="&#x2021;" 
d="M220 152v-152h117v152h161v86h-161v239h161v87h-161v152h-117v-152h-159v-87h159v-239h-159v-86h159z" />
    <glyph glyph-name="bullet" unicode="&#x2022;" horiz-adv-x="600" 
d="M459 536h-318v-357h318v357z" />
    <glyph glyph-name="ellipsis" unicode="&#x2026;" horiz-adv-x="1000" 
d="M235 0v132h-136v-132h136zM569 0v132h-136v-132h136zM903 0v132h-136v-132h136z" />
    <glyph glyph-name="perthousand" unicode="&#x2030;" horiz-adv-x="1000" 
d="M852 -12q36 0 62.5 16t42.5 42.5t23.5 59t7.5 66.5q0 38 -7.5 70.5t-24.5 58t-45 40t-67 14.5q-61 0 -104 -55q-16 -20 -24.5 -57.5t-8.5 -70.5q0 -38 7.5 -70.5t25 -58.5t45.5 -40.5t67 -14.5zM847 52q-19 0 -30 12.5t-16.5 32t-7 38t-1.5 38.5t1.5 38t6.5 36.5t16.5 31
t30.5 12.5q20 0 31.5 -12t17 -31t6.5 -37t1 -41q0 -19 -1.5 -37.5t-7 -37.5t-17 -31t-30.5 -12zM519 -12q31 0 59.5 14.5t45.5 39.5q20 30 26 58.5t6 71.5q0 38 -8 71t-25 58t-45.5 39.5t-67.5 14.5q-50 0 -83.5 -31.5t-45.5 -82.5q-4 -20 -5.5 -35t-1.5 -34q0 -22 1 -38
t5 -29l1 -5q9 -29 17 -45.5t25 -31.5q38 -35 96 -35zM560 249q11 -34 11 -82q0 -19 -1.5 -37.5t-7 -36.5t-17 -29.5t-30.5 -11.5t-30.5 12.5t-17 31t-7 37.5t-1.5 38q0 20 2 39t7.5 37.5t17 31t29.5 12.5q17 0 28 -12t17 -30zM176 -12l396 740h-85l-394 -740h83zM152 361
q38 0 65 16t43.5 43t24 60t7.5 68q0 37 -8 69.5t-25 57.5t-45.5 39t-67.5 14q-38 0 -64.5 -16t-42 -43.5t-22.5 -60.5t-7 -69q0 -34 8.5 -66t25.5 -57.5t44.5 -40t63.5 -14.5zM150 664q19 0 30.5 -12t17.5 -30t7.5 -36.5t1.5 -38.5q0 -19 -1.5 -38t-6.5 -38.5t-16.5 -32.5
t-29.5 -13q-20 0 -32 12.5t-17.5 31.5t-7 38t-1.5 40q0 19 2 37.5t7.5 36.5t16.5 30.5t29 12.5z" />
    <glyph glyph-name="guilsinglleft" unicode="&#x2039;" horiz-adv-x="333" 
d="M148 66h97l-82 218l82 215h-97l-82 -215z" />
    <glyph glyph-name="guilsinglright" unicode="&#x203a;" horiz-adv-x="333" 
d="M87 66h97l82 218l-82 215h-97l82 -215z" />
    <glyph glyph-name="trademark" unicode="&#x2122;" horiz-adv-x="980" 
d="M846 716h-102l-122 -287l-116 287h-104v-407h64v350l138 -350h38l141 350v-350h63v407zM330 716h-330v-57h130v-350h71v350h129v57z" />
    </font>
</defs>
</svg>
